<?xml version="1.0" encoding="UTF-8" standalone="no"?>
<svg width="30px" height="30px" viewBox="0 0 30 30" version="1.1" xmlns="http://www.w3.org/2000/svg" xmlns:xlink="http://www.w3.org/1999/xlink">
    <!-- Generator: Sketch 39.1 (31720) - http://www.bohemiancoding.com/sketch -->
    <title>A</title>
    <desc>Created with Sketch.</desc>
    <defs></defs>
    <g id="Page-1" stroke="none" stroke-width="1" fill="none" fill-rule="evenodd">
        <g id="A" fill="#000000">
            <path d="M0,5.00443555 C0,2.24056212 2.2303666,0 5.00443555,0 L24.9955644,0 C27.7594379,0 30,2.2303666 30,5.00443555 L30,24.9955644 C30,27.7594379 27.7696334,30 24.9955644,30 L5.00443555,30 C2.24056212,30 0,27.7696334 0,24.9955644 L0,5.00443555 Z M19.0209961,20.0102344 L10.9790039,20.0102344 L9.17285156,25.02 L6.5625,25.02 L13.8925781,5.8246875 L16.1074219,5.8246875 L23.4506836,25.02 L20.8535156,25.02 L19.0209961,20.0102344 Z M11.7436523,17.9272266 L18.2695312,17.9272266 L15,8.94919922 L11.7436523,17.9272266 Z" id="Combined-Shape"></path>
        </g>
    </g>
</svg>