<?xml version="1.0" encoding="UTF-8" standalone="no"?>
<svg width="30px" height="30px" viewBox="0 0 30 30" version="1.1" xmlns="http://www.w3.org/2000/svg" xmlns:xlink="http://www.w3.org/1999/xlink">
    <!-- Generator: Sketch 39.1 (31720) - http://www.bohemiancoding.com/sketch -->
    <title>B</title>
    <desc>Created with Sketch.</desc>
    <defs></defs>
    <g id="Page-1" stroke="none" stroke-width="1" fill="none" fill-rule="evenodd">
        <g id="B" fill="#000000">
            <path d="M0,5.00443555 C0,2.24056212 2.2303666,0 5.00443555,0 L24.9955644,0 C27.7594379,0 30,2.2303666 30,5.00443555 L30,24.9955644 C30,27.7594379 27.7696334,30 24.9955644,30 L5.00443555,30 C2.24056212,30 0,27.7696334 0,24.9955644 L0,5.00443555 Z M9.32497337,24 L9.32497337,5.515625 L15.3679421,5.515625 C16.3158635,5.515625 17.1622092,5.61083889 17.9070046,5.80126953 C18.6518,5.99170017 19.2844434,6.28792117 19.8049538,6.68994141 C20.3254643,7.09196165 20.7232467,7.60188493 20.9983132,8.21972656 C21.2733797,8.83756819 21.4109109,9.57812068 21.4109109,10.4414062 C21.4109109,11.3046918 21.1654706,12.0685188 20.6745827,12.7329102 C20.1836949,13.3973015 19.5150818,13.9114565 18.6687234,14.2753906 C19.185002,14.4192716 19.6441445,14.630858 20.0461648,14.9101562 C20.448185,15.1894545 20.7867233,15.5195293 21.0617898,15.9003906 C21.3368563,16.2812519 21.5463268,16.7086565 21.6902077,17.1826172 C21.8340887,17.6565779 21.9060281,18.1516901 21.9060281,18.6679688 C21.9060281,19.5312543 21.7600334,20.2950813 21.4680398,20.9594727 C21.1760461,21.623864 20.7634526,22.1824522 20.2302468,22.6352539 C19.697041,23.0880556 19.0538183,23.4287098 18.3005593,23.6572266 C17.5473003,23.8857433 16.7094181,24 15.7868874,24 L9.32497337,24 Z M11.7624734,15.3544922 L11.7624734,22.0068359 L15.7868874,22.0068359 C16.3708747,22.0068359 16.8892615,21.928549 17.3420632,21.7719727 C17.794865,21.6153964 18.1778364,21.3953465 18.490989,21.1118164 C18.8041416,20.8282863 19.0432343,20.4812846 19.2082741,20.0708008 C19.373314,19.660317 19.4558327,19.2011744 19.4558327,18.6933594 C19.4558327,18.1855443 19.3881251,17.7242859 19.2527077,17.3095703 C19.1172904,16.8948547 18.9035881,16.5436212 18.6115945,16.2558594 C18.3196008,15.9680975 17.9493246,15.7459318 17.5007546,15.5893555 C17.0521847,15.4327792 16.5189869,15.3544922 15.9011452,15.3544922 L11.7624734,15.3544922 Z M11.7624734,13.3994141 L15.444114,13.3994141 C15.9688562,13.3994141 16.4470415,13.3317064 16.8786843,13.1962891 C17.3103271,13.0608717 17.6806033,12.8662122 17.9895241,12.6123047 C18.298445,12.3583972 18.5375376,12.0473651 18.7068093,11.6791992 C18.876081,11.3110333 18.9607156,10.8942081 18.9607156,10.4287109 C18.9607156,9.41308086 18.6644946,8.67464423 18.0720437,8.21337891 C17.4795928,7.75211358 16.5782346,7.52148438 15.3679421,7.52148438 L11.7624734,7.52148438 L11.7624734,13.3994141 Z" id="Combined-Shape"></path>
        </g>
    </g>
</svg>