<?xml version="1.0" encoding="UTF-8" standalone="no"?>
<svg width="30px" height="30px" viewBox="0 0 30 30" version="1.1" xmlns="http://www.w3.org/2000/svg" xmlns:xlink="http://www.w3.org/1999/xlink">
    <!-- Generator: Sketch 39.1 (31720) - http://www.bohemiancoding.com/sketch -->
    <title>C</title>
    <desc>Created with Sketch.</desc>
    <defs></defs>
    <g id="Page-1" stroke="none" stroke-width="1" fill="none" fill-rule="evenodd">
        <g id="C" fill="#000000">
            <path d="M0,5.00443555 C0,2.24056212 2.2303666,0 5.00443555,0 L24.9955644,0 C27.7594379,0 30,2.2303666 30,5.00443555 L30,24.9955644 C30,27.7594379 27.7696334,30 24.9955644,30 L5.00443555,30 C2.24056212,30 0,27.7696334 0,24.9955644 L0,5.00443555 Z M22.2807617,18.1347656 C22.1791987,19.0065148 21.9654964,19.8168908 21.6396484,20.565918 C21.3138005,21.3149452 20.8631214,21.9623996 20.2875977,22.5083008 C19.7120739,23.0542019 19.009607,23.4816065 18.1801758,23.7905273 C17.3507446,24.0994482 16.3816787,24.2539062 15.2729492,24.2539062 C14.1811469,24.2539062 13.1909224,24.0507833 12.3022461,23.6445312 C11.4135698,23.2382792 10.6539745,22.6606483 10.0234375,21.9116211 C9.39290049,21.1625939 8.90625171,20.2633516 8.56347656,19.2138672 C8.22070141,18.1643828 8.04931641,16.992194 8.04931641,15.6972656 L8.04931641,13.84375 C8.04931641,12.5488217 8.22281728,11.374517 8.56982422,10.3208008 C8.91683116,9.26708458 9.4119434,8.3657264 10.0551758,7.61669922 C10.6984082,6.86767204 11.4791621,6.28792523 12.3974609,5.87744141 C13.3157598,5.46695758 14.3461857,5.26171875 15.4887695,5.26171875 C16.5297904,5.26171875 17.4523072,5.41406098 18.2563477,5.71875 C19.0603881,6.02343902 19.7438123,6.44872774 20.3066406,6.99462891 C20.869469,7.54053007 21.3159163,8.19221626 21.6459961,8.94970703 C21.9760759,9.7071978 22.1876623,10.5429642 22.2807617,11.4570312 L19.8305664,11.4570312 C19.737467,10.8137989 19.5935882,10.2340521 19.3989258,9.71777344 C19.2042633,9.20149481 18.9355486,8.76139505 18.5927734,8.39746094 C18.2499983,8.03352683 17.8247096,7.75423274 17.3168945,7.55957031 C16.8090795,7.36490788 16.1997106,7.26757812 15.4887695,7.26757812 C14.6678019,7.26757812 13.9462922,7.42626794 13.3242188,7.74365234 C12.7021453,8.06103674 12.1816427,8.50536824 11.7626953,9.07666016 C11.3437479,9.64795208 11.0284841,10.3377238 10.8168945,11.1459961 C10.6053049,11.9542684 10.4995117,12.8450472 10.4995117,13.8183594 L10.4995117,15.6972656 C10.4995117,16.6028691 10.5947256,17.4534465 10.7851562,18.2490234 C10.9755869,19.0446003 11.2654603,19.7407197 11.6547852,20.3374023 C12.04411,20.934085 12.5392223,21.4038069 13.1401367,21.746582 C13.7410512,22.0893572 14.4519816,22.2607422 15.2729492,22.2607422 C16.0515989,22.2607422 16.7075169,22.1676442 17.2407227,21.9814453 C17.7739284,21.7952465 18.2161441,21.5265317 18.5673828,21.175293 C18.9186215,20.8240542 19.191568,20.3924179 19.3862305,19.8803711 C19.5808929,19.3683243 19.7290034,18.7864616 19.8305664,18.1347656 L22.2807617,18.1347656 Z" id="Combined-Shape"></path>
        </g>
    </g>
</svg>