<?xml version="1.0" encoding="UTF-8" standalone="no"?>
<svg width="30px" height="30px" viewBox="0 0 30 30" version="1.1" xmlns="http://www.w3.org/2000/svg" xmlns:xlink="http://www.w3.org/1999/xlink">
    <!-- Generator: Sketch 39.1 (31720) - http://www.bohemiancoding.com/sketch -->
    <title>D</title>
    <desc>Created with Sketch.</desc>
    <defs></defs>
    <g id="Page-1" stroke="none" stroke-width="1" fill="none" fill-rule="evenodd">
        <g id="D" fill="#000000">
            <path d="M0,5.00443555 C0,2.24056212 2.2303666,0 5.00443555,0 L24.9955644,0 C27.7594379,0 30,2.2303666 30,5.00443555 L30,24.9955644 C30,27.7594379 27.7696334,30 24.9955644,30 L5.00443555,30 C2.24056212,30 0,27.7696334 0,24.9955644 L0,5.00443555 Z M8.62060547,24 L8.62060547,5.515625 L13.8383789,5.515625 C15.057135,5.515625 16.1658479,5.71874797 17.1645508,6.125 C18.1632537,6.53125203 19.0201787,7.11099884 19.7353516,7.86425781 C20.4505244,8.61751679 21.0048808,9.53157015 21.3984375,10.6064453 C21.7919942,11.6813205 21.9887695,12.8873631 21.9887695,14.2246094 L21.9887695,15.3164062 C21.9887695,16.6536525 21.7919942,17.8596951 21.3984375,18.9345703 C21.0048808,20.0094455 20.4462927,20.921383 19.7226562,21.6704102 C18.9990198,22.4194373 18.1209362,22.9949524 17.0883789,23.3969727 C16.0558217,23.7989929 14.9005598,24 13.6225586,24 L8.62060547,24 Z M11.0581055,7.52148438 L11.0581055,22.0068359 L13.6225586,22.0068359 C14.6043343,22.0068359 15.467607,21.8481461 16.2124023,21.5307617 C16.9571977,21.2133773 17.5792618,20.7626982 18.0786133,20.1787109 C18.5779647,19.5947236 18.9524727,18.8922567 19.2021484,18.0712891 C19.4518242,17.2503214 19.5766602,16.3320363 19.5766602,15.3164062 L19.5766602,14.1865234 C19.5766602,13.1285754 19.4497083,12.1870158 19.1958008,11.3618164 C18.9418933,10.536617 18.5695012,9.83838176 18.0786133,9.26708984 C17.5877254,8.69579792 16.98682,8.26204575 16.2758789,7.96582031 C15.5649379,7.66959487 14.752446,7.52148438 13.8383789,7.52148438 L11.0581055,7.52148438 Z" id="Combined-Shape"></path>
        </g>
    </g>
</svg>