<?xml version="1.0" encoding="UTF-8" standalone="no"?>
<svg width="30px" height="30px" viewBox="0 0 30 30" version="1.1" xmlns="http://www.w3.org/2000/svg" xmlns:xlink="http://www.w3.org/1999/xlink">
    <!-- Generator: Sketch 39.1 (31720) - http://www.bohemiancoding.com/sketch -->
    <title>E</title>
    <desc>Created with Sketch.</desc>
    <defs></defs>
    <g id="Page-1" stroke="none" stroke-width="1" fill="none" fill-rule="evenodd">
        <g id="E" fill="#000000">
            <path d="M0,5.00443555 C0,2.24056212 2.2303666,0 5.00443555,0 L24.9955644,0 C27.7594379,0 30,2.2303666 30,5.00443555 L30,24.9955644 C30,27.7594379 27.7696334,30 24.9955644,30 L5.00443555,30 C2.24056212,30 0,27.7696334 0,24.9955644 L0,5.00443555 Z M20.2050781,15.4560547 L12.1943359,15.4560547 L12.1943359,22.0068359 L21.5,22.0068359 L21.5,24 L9.75683594,24 L9.75683594,5.515625 L21.3730469,5.515625 L21.3730469,7.52148438 L12.1943359,7.52148438 L12.1943359,13.4628906 L20.2050781,13.4628906 L20.2050781,15.4560547 Z" id="Combined-Shape"></path>
        </g>
    </g>
</svg>