<?xml version="1.0" encoding="UTF-8" standalone="no"?>
<svg width="30px" height="30px" viewBox="0 0 30 30" version="1.1" xmlns="http://www.w3.org/2000/svg" xmlns:xlink="http://www.w3.org/1999/xlink">
    <!-- Generator: Sketch 39.1 (31720) - http://www.bohemiancoding.com/sketch -->
    <title>G</title>
    <desc>Created with Sketch.</desc>
    <defs></defs>
    <g id="Page-1" stroke="none" stroke-width="1" fill="none" fill-rule="evenodd">
        <g id="G" fill="#000000">
            <path d="M0,5.00443555 C0,2.24056212 2.2303666,0 5.00443555,0 L24.9955644,0 C27.7594379,0 30,2.2303666 30,5.00443555 L30,24.9955644 C30,27.7594379 27.7696334,30 24.9955644,30 L5.00443555,30 C2.24056212,30 0,27.7696334 0,24.9955644 L0,5.00443555 Z M21.9379883,21.5751953 C21.760253,21.8291028 21.5148128,22.1105128 21.2016602,22.4194336 C20.8885075,22.7283544 20.475914,23.0182278 19.9638672,23.2890625 C19.4518204,23.5598972 18.8234087,23.7884105 18.0786133,23.9746094 C17.3338179,24.1608082 16.4409232,24.2539062 15.3999023,24.2539062 C14.2742457,24.2539062 13.2395881,24.055015 12.2958984,23.6572266 C11.3522088,23.2594381 10.5397169,22.6860389 9.85839844,21.9370117 C9.17707993,21.1879845 8.645998,20.2696994 8.26513672,19.1821289 C7.88427544,18.0945584 7.69384766,16.8610095 7.69384766,15.4814453 L7.69384766,14.0341797 C7.69384766,12.6546155 7.8567692,11.4231825 8.18261719,10.3398438 C8.50846517,9.256505 8.98665049,8.33821991 9.6171875,7.58496094 C10.2477245,6.83170196 11.0242467,6.25618688 11.9467773,5.85839844 C12.869308,5.46060999 13.9272401,5.26171875 15.1206055,5.26171875 C16.1785535,5.26171875 17.105302,5.40348166 17.9008789,5.68701172 C18.6964558,5.97054178 19.3735324,6.36409253 19.9321289,6.86767578 C20.4907254,7.37125903 20.9350569,7.97004861 21.2651367,8.6640625 C21.5952165,9.35807639 21.8194981,10.1155558 21.9379883,10.9365234 L19.5004883,10.9365234 C19.4073889,10.437172 19.2613942,9.96533425 19.0625,9.52099609 C18.8636058,9.07665793 18.5906593,8.68733891 18.2436523,8.35302734 C17.8966454,8.01871578 17.4692408,7.75423274 16.9614258,7.55957031 C16.4536107,7.36490788 15.8442418,7.26757812 15.1333008,7.26757812 C14.2700152,7.26757812 13.525231,7.42415208 12.8989258,7.73730469 C12.2726206,8.05045729 11.7563497,8.49902052 11.3500977,9.08300781 C10.9438456,9.66699511 10.641277,10.3736938 10.4423828,11.203125 C10.2434886,12.0325562 10.144043,12.9677682 10.144043,14.0087891 L10.144043,15.4814453 C10.144043,16.5478569 10.2709948,17.4999958 10.5249023,18.3378906 C10.7788099,19.1757854 11.1363909,19.8867158 11.5976562,20.4707031 C12.0589216,21.0546904 12.613278,21.4990219 13.2607422,21.8037109 C13.9082064,22.1084 14.6254843,22.2607422 15.4125977,22.2607422 C16.0727572,22.2607422 16.6334612,22.216309 17.0947266,22.1274414 C17.5559919,22.0385738 17.9453109,21.9285488 18.2626953,21.7973633 C18.5800797,21.6661777 18.8360993,21.522299 19.0307617,21.3657227 C19.2254242,21.2091464 19.3862298,21.0631517 19.5131836,20.9277344 L19.5131836,16.7763672 L15.2348633,16.7763672 L15.2348633,14.7958984 L21.9379883,14.7958984 L21.9379883,21.5751953 Z" id="Combined-Shape"></path>
        </g>
    </g>
</svg>