<?xml version="1.0" encoding="UTF-8" standalone="no"?>
<svg width="30px" height="30px" viewBox="0 0 30 30" version="1.1" xmlns="http://www.w3.org/2000/svg" xmlns:xlink="http://www.w3.org/1999/xlink">
    <!-- Generator: Sketch 39.1 (31720) - http://www.bohemiancoding.com/sketch -->
    <title>J</title>
    <desc>Created with Sketch.</desc>
    <defs></defs>
    <g id="Page-1" stroke="none" stroke-width="1" fill="none" fill-rule="evenodd">
        <g id="J" fill="#000000">
            <path d="M0,5.00443555 C0,2.24056212 2.2303666,0 5.00443555,0 L24.9955644,0 C27.7594379,0 30,2.2303666 30,5.00443555 L30,24.9955644 C30,27.7594379 27.7696334,30 24.9955644,30 L5.00443555,30 C2.24056212,30 0,27.7696334 0,24.9955644 L0,5.00443555 Z M17.7167969,5.515625 L20.1669922,5.515625 L20.1669922,18.6044922 C20.1669922,19.5185593 20.0231134,20.3289353 19.7353516,21.0356445 C19.4475897,21.7423538 19.0434596,22.3326799 18.5229492,22.8066406 C18.0024388,23.2806013 17.3846064,23.6402983 16.6694336,23.8857422 C15.9542607,24.1311861 15.1735068,24.2539062 14.3271484,24.2539062 C13.4723265,24.2539062 12.6894567,24.1459972 11.9785156,23.9301758 C11.2675746,23.7143544 10.6539739,23.3842796 10.1376953,22.9399414 C9.62141669,22.4956032 9.21940248,21.9370151 8.93164062,21.2641602 C8.64387877,20.5913052 8.5,19.8020879 8.5,18.8964844 L10.9375,18.8964844 C10.9375,19.4804717 11.0221346,19.9840474 11.1914062,20.4072266 C11.3606779,20.8304058 11.593423,21.1795234 11.8896484,21.4545898 C12.1858739,21.7296563 12.5413391,21.9327793 12.9560547,22.0639648 C13.3707703,22.1951504 13.827797,22.2607422 14.3271484,22.2607422 C14.8095727,22.2607422 15.2581359,22.1824552 15.6728516,22.0258789 C16.0875672,21.8693026 16.4472641,21.6386734 16.7519531,21.3339844 C17.0566421,21.0292954 17.2936189,20.6484398 17.4628906,20.1914062 C17.6321623,19.7343727 17.7167969,19.2054067 17.7167969,18.6044922 L17.7167969,5.515625 Z" id="Combined-Shape"></path>
        </g>
    </g>
</svg>