<?xml version="1.0" encoding="UTF-8" standalone="no"?>
<svg width="30px" height="30px" viewBox="0 0 30 30" version="1.1" xmlns="http://www.w3.org/2000/svg" xmlns:xlink="http://www.w3.org/1999/xlink">
    <!-- Generator: Sketch 39.1 (31720) - http://www.bohemiancoding.com/sketch -->
    <title>K</title>
    <desc>Created with Sketch.</desc>
    <defs></defs>
    <g id="Page-1" stroke="none" stroke-width="1" fill="none" fill-rule="evenodd">
        <g id="K" fill="#000000">
            <path d="M0,5.00443555 C0,2.24056212 2.2303666,0 5.00443555,0 L24.9955644,0 C27.7594379,0 30,2.2303666 30,5.00443555 L30,24.9955644 C30,27.7594379 27.7696334,30 24.9955644,30 L5.00443555,30 C2.24056212,30 0,27.7696334 0,24.9955644 L0,5.00443555 Z M13.6923828,15.4052734 L11.4326172,17.7539062 L11.4326172,24 L8.99511719,24 L8.99511719,5.515625 L11.4326172,5.515625 L11.4326172,14.65625 L13.4384766,12.421875 L19.6464844,5.515625 L22.5917969,5.515625 L15.3173828,13.6787109 L23.1630859,24 L20.2431641,24 L13.6923828,15.4052734 Z" id="Combined-Shape"></path>
        </g>
    </g>
</svg>