<?xml version="1.0" encoding="UTF-8" standalone="no"?>
<svg width="30px" height="30px" viewBox="0 0 30 30" version="1.1" xmlns="http://www.w3.org/2000/svg" xmlns:xlink="http://www.w3.org/1999/xlink">
    <!-- Generator: Sketch 39.1 (31720) - http://www.bohemiancoding.com/sketch -->
    <title>M</title>
    <desc>Created with Sketch.</desc>
    <defs></defs>
    <g id="Page-1" stroke="none" stroke-width="1" fill="none" fill-rule="evenodd">
        <g id="M" fill="#000000">
            <path d="M0,5.00443555 C0,2.24056212 2.2303666,0 5.00443555,0 L24.9955644,0 C27.7594379,0 30,2.2303666 30,5.00443555 L30,24.9955644 C30,27.7594379 27.7696334,30 24.9955644,30 L5.00443555,30 C2.24056212,30 0,27.7696334 0,24.9955644 L0,5.00443555 Z M8.94433594,5.515625 L14.9873047,20.5976562 L21.0302734,5.515625 L24.1914062,5.515625 L24.1914062,24 L21.7539062,24 L21.7539062,16.8017578 L21.9824219,9.03222656 L15.9140625,24 L14.0478516,24 L7.9921875,9.0703125 L8.23339844,16.8017578 L8.23339844,24 L5.79589844,24 L5.79589844,5.515625 L8.94433594,5.515625 Z" id="Combined-Shape"></path>
        </g>
    </g>
</svg>