<?xml version="1.0" encoding="UTF-8" standalone="no"?>
<svg width="30px" height="30px" viewBox="0 0 30 30" version="1.1" xmlns="http://www.w3.org/2000/svg" xmlns:xlink="http://www.w3.org/1999/xlink">
    <!-- Generator: Sketch 39.1 (31720) - http://www.bohemiancoding.com/sketch -->
    <title>O</title>
    <desc>Created with Sketch.</desc>
    <defs></defs>
    <g id="Page-1" stroke="none" stroke-width="1" fill="none" fill-rule="evenodd">
        <g id="O" fill="#000000">
            <path d="M0,5.00443555 C0,2.24056212 2.2303666,0 5.00443555,0 L24.9955644,0 C27.7594379,0 30,2.2303666 30,5.00443555 L30,24.9955644 C30,27.7594379 27.7696334,30 24.9955644,30 L5.00443555,30 C2.24056212,30 0,27.7696334 0,24.9955644 L0,5.00443555 Z M22.4267578,15.3544922 C22.4267578,16.74252 22.2511411,17.9845323 21.8999023,19.0805664 C21.5486636,20.1766005 21.0514355,21.1096967 20.4082031,21.8798828 C19.7649707,22.650069 18.9863327,23.2382792 18.0722656,23.6445312 C17.1581986,24.0507833 16.138352,24.2539062 15.0126953,24.2539062 C13.920893,24.2539062 12.9179733,24.0507833 12.0039062,23.6445312 C11.0898392,23.2382792 10.3027377,22.650069 9.64257812,21.8798828 C8.98241857,21.1096967 8.47037942,20.1766005 8.10644531,19.0805664 C7.7425112,17.9845323 7.56054688,16.74252 7.56054688,15.3544922 L7.56054688,14.1865234 C7.56054688,12.8069592 7.7425112,11.5649469 8.10644531,10.4604492 C8.47037942,9.35595151 8.97818685,8.41862364 9.62988281,7.6484375 C10.2815788,6.87825136 11.0644486,6.28792523 11.9785156,5.87744141 C12.8925827,5.46695758 13.8955024,5.26171875 14.9873047,5.26171875 C16.1129614,5.26171875 17.1349238,5.46695758 18.0532227,5.87744141 C18.9715215,6.28792523 19.7543913,6.87825136 20.4018555,7.6484375 C21.0493196,8.41862364 21.5486636,9.35595151 21.8999023,10.4604492 C22.2511411,11.5649469 22.4267578,12.8069592 22.4267578,14.1865234 L22.4267578,15.3544922 Z M20.0019531,14.1611328 C20.0019531,13.0608669 19.8898123,12.0875693 19.6655273,11.2412109 C19.4412424,10.3948525 19.1132834,9.68392215 18.6816406,9.10839844 C18.2499978,8.53287473 17.7231476,8.09700669 17.1010742,7.80078125 C16.4790008,7.50455581 15.774418,7.35644531 14.9873047,7.35644531 C14.2340457,7.35644531 13.5485057,7.50455581 12.9306641,7.80078125 C12.3128224,8.09700669 11.7859722,8.53287473 11.3500977,9.10839844 C10.9142231,9.68392215 10.5778007,10.3948525 10.3408203,11.2412109 C10.10384,12.0875693 9.98535156,13.0608669 9.98535156,14.1611328 L9.98535156,15.3544922 C9.98535156,16.4632217 10.1059558,17.440751 10.347168,18.2871094 C10.5883801,19.1334678 10.9290343,19.846514 11.3691406,20.4262695 C11.809247,21.006025 12.3382131,21.4440089 12.9560547,21.7402344 C13.5738963,22.0364598 14.2594363,22.1845703 15.0126953,22.1845703 C15.8082722,22.1845703 16.5149709,22.0364598 17.1328125,21.7402344 C17.7506541,21.4440089 18.2732726,21.006025 18.7006836,20.4262695 C19.1280946,19.846514 19.4518218,19.1334678 19.671875,18.2871094 C19.8919282,17.440751 20.0019531,16.4632217 20.0019531,15.3544922 L20.0019531,14.1611328 Z" id="Combined-Shape"></path>
        </g>
    </g>
</svg>