<?xml version="1.0" encoding="UTF-8" standalone="no"?>
<svg width="30px" height="30px" viewBox="0 0 30 30" version="1.1" xmlns="http://www.w3.org/2000/svg" xmlns:xlink="http://www.w3.org/1999/xlink">
    <!-- Generator: Sketch 39.1 (31720) - http://www.bohemiancoding.com/sketch -->
    <title>P</title>
    <desc>Created with Sketch.</desc>
    <defs></defs>
    <g id="Page-1" stroke="none" stroke-width="1" fill="none" fill-rule="evenodd">
        <g id="P" fill="#000000">
            <path d="M0,5.00443555 C0,2.24056212 2.2303666,0 5.00443555,0 L24.9955644,0 C27.7594379,0 30,2.2303666 30,5.00443555 L30,24.9955644 C30,27.7594379 27.7696334,30 24.9955644,30 L5.00443555,30 C2.24056212,30 0,27.7696334 0,24.9955644 L0,5.00443555 Z M11.3818359,16.7636719 L11.3818359,24 L8.94433594,24 L8.94433594,5.515625 L15.7617188,5.515625 C16.8112032,5.515625 17.7379517,5.65527204 18.5419922,5.93457031 C19.3460327,6.21386858 20.0209934,6.60530347 20.5668945,7.10888672 C21.1127957,7.61246997 21.5275051,8.20914369 21.8110352,8.89892578 C22.0945652,9.58870788 22.2363281,10.3440714 22.2363281,11.1650391 C22.2363281,12.0537154 22.0945652,12.8471645 21.8110352,13.5454102 C21.5275051,14.2436558 21.1127957,14.8297502 20.5668945,15.3037109 C20.0209934,15.7776716 19.3460327,16.1394844 18.5419922,16.3891602 C17.7379517,16.6388359 16.8112032,16.7636719 15.7617188,16.7636719 L11.3818359,16.7636719 Z M11.3818359,14.7705078 L15.7617188,14.7705078 C16.4726598,14.7705078 17.0841446,14.6816415 17.5961914,14.5039062 C18.1082382,14.326171 18.5271794,14.0786149 18.8530273,13.7612305 C19.1788753,13.4438461 19.417968,13.0672222 19.5703125,12.6313477 C19.722657,12.1954731 19.7988281,11.7151719 19.7988281,11.1904297 C19.7988281,10.716469 19.722657,10.2573264 19.5703125,9.81298828 C19.417968,9.36865012 19.1788753,8.97721523 18.8530273,8.63867188 C18.5271794,8.30012852 18.1082382,8.02929789 17.5961914,7.82617188 C17.0841446,7.62304586 16.4726598,7.52148438 15.7617188,7.52148438 L11.3818359,7.52148438 L11.3818359,14.7705078 Z" id="Combined-Shape"></path>
        </g>
    </g>
</svg>