<?xml version="1.0" encoding="UTF-8" standalone="no"?>
<svg width="30px" height="30px" viewBox="0 0 30 30" version="1.1" xmlns="http://www.w3.org/2000/svg" xmlns:xlink="http://www.w3.org/1999/xlink">
    <!-- Generator: Sketch 39.1 (31720) - http://www.bohemiancoding.com/sketch -->
    <title>Q</title>
    <desc>Created with Sketch.</desc>
    <defs></defs>
    <g id="Page-1" stroke="none" stroke-width="1" fill="none" fill-rule="evenodd">
        <g id="Q" fill="#000000">
            <path d="M0,5.00443555 C0,2.24056212 2.2303666,0 5.00443555,0 L24.9955644,0 C27.7594379,0 30,2.2303666 30,5.00443555 L30,24.9955644 C30,27.7594379 27.7696334,30 24.9955644,30 L5.00443555,30 C2.24056212,30 0,27.7696334 0,24.9955644 L0,5.00443555 Z M22.3251953,15.3544922 C22.3251953,17.1403084 22.0416695,18.6785417 21.4746094,19.9692383 C20.9075492,21.2599348 20.1119843,22.2692021 19.0878906,22.9970703 L22.3886719,25.5869141 L20.7255859,27.1230469 L16.828125,24.0253906 C16.218747,24.1777351 15.5755242,24.2539062 14.8984375,24.2539062 C13.8066352,24.2539062 12.8037155,24.0507833 11.8896484,23.6445312 C10.9755814,23.2382792 10.1884799,22.650069 9.52832031,21.8798828 C8.86816076,21.1096967 8.35612161,20.1766005 7.9921875,19.0805664 C7.62825339,17.9845323 7.44628906,16.74252 7.44628906,15.3544922 L7.44628906,14.1865234 C7.44628906,12.8069592 7.62825339,11.5649469 7.9921875,10.4604492 C8.35612161,9.35595151 8.86392903,8.41862364 9.515625,7.6484375 C10.167321,6.87825136 10.9501907,6.28792523 11.8642578,5.87744141 C12.7783249,5.46695758 13.7812445,5.26171875 14.8730469,5.26171875 C15.9987035,5.26171875 17.020666,5.46695758 17.9389648,5.87744141 C18.8572637,6.28792523 19.6422493,6.87825136 20.2939453,7.6484375 C20.9456413,8.41862364 21.4471011,9.35595151 21.7983398,10.4604492 C22.1495786,11.5649469 22.3251953,12.8069592 22.3251953,14.1865234 L22.3251953,15.3544922 Z M19.8876953,14.1611328 C19.8876953,13.0608669 19.7755545,12.0875693 19.5512695,11.2412109 C19.3269846,10.3948525 19.0011415,9.68392215 18.5737305,9.10839844 C18.1463195,8.53287473 17.6215851,8.09700669 16.9995117,7.80078125 C16.3774383,7.50455581 15.6686238,7.35644531 14.8730469,7.35644531 C14.1197879,7.35644531 13.4363637,7.50455581 12.8227539,7.80078125 C12.2091441,8.09700669 11.6844097,8.53287473 11.2485352,9.10839844 C10.8126606,9.68392215 10.4762382,10.3948525 10.2392578,11.2412109 C10.0022775,12.0875693 9.88378906,13.0608669 9.88378906,14.1611328 L9.88378906,15.3544922 C9.88378906,16.4632217 10.0043933,17.440751 10.2456055,18.2871094 C10.4868176,19.1334678 10.8253559,19.846514 11.2612305,20.4262695 C11.697105,21.006025 12.2239552,21.4440089 12.8417969,21.7402344 C13.4596385,22.0364598 14.1451785,22.1845703 14.8984375,22.1845703 C15.6940144,22.1845703 16.4007131,22.0364598 17.0185547,21.7402344 C17.6363963,21.4440089 18.1590148,21.006025 18.5864258,20.4262695 C19.0138368,19.846514 19.337564,19.1334678 19.5576172,18.2871094 C19.7776704,17.440751 19.8876953,16.4632217 19.8876953,15.3544922 L19.8876953,14.1611328 Z" id="Combined-Shape"></path>
        </g>
    </g>
</svg>