<?xml version="1.0" encoding="UTF-8" standalone="no"?>
<svg width="30px" height="30px" viewBox="0 0 30 30" version="1.1" xmlns="http://www.w3.org/2000/svg" xmlns:xlink="http://www.w3.org/1999/xlink">
    <!-- Generator: Sketch 39.1 (31720) - http://www.bohemiancoding.com/sketch -->
    <title>R</title>
    <desc>Created with Sketch.</desc>
    <defs></defs>
    <g id="Page-1" stroke="none" stroke-width="1" fill="none" fill-rule="evenodd">
        <g id="R" fill="#000000">
            <path d="M0,5.00443555 C0,2.24056212 2.2303666,0 5.00443555,0 L24.9955644,0 C27.7594379,0 30,2.2303666 30,5.00443555 L30,24.9955644 C30,27.7594379 27.7696334,30 24.9955644,30 L5.00443555,30 C2.24056212,30 0,27.7696334 0,24.9955644 L0,5.00443555 Z M15.9204102,16.5224609 L11.5786133,16.5224609 L11.5786133,24 L9.12841797,24 L9.12841797,5.515625 L15.2475586,5.515625 C17.3296003,5.515625 18.9313095,5.98957859 20.0527344,6.9375 C21.1741593,7.88542141 21.7348633,9.2649649 21.7348633,11.0761719 C21.7348633,12.2272193 21.4238312,13.230139 20.8017578,14.0849609 C20.1796844,14.9397829 19.3142959,15.5787739 18.2055664,16.0019531 L22.5473633,23.8476562 L22.5473633,24 L19.9321289,24 L15.9204102,16.5224609 Z M11.5786133,14.5292969 L15.3237305,14.5292969 C15.98389,14.5292969 16.561521,14.4383147 17.0566406,14.2563477 C17.5517603,14.0743806 17.9643538,13.8289403 18.2944336,13.5200195 C18.6245134,13.2110987 18.8720695,12.8471701 19.0371094,12.4282227 C19.2021493,12.0092752 19.284668,11.5585962 19.284668,11.0761719 C19.284668,10.5429661 19.206381,10.0584332 19.0498047,9.62255859 C18.8932284,9.18668402 18.649904,8.81217604 18.3198242,8.49902344 C17.9897444,8.18587083 17.5708033,7.9446623 17.0629883,7.77539062 C16.5551732,7.60611895 15.9500361,7.52148438 15.2475586,7.52148438 L11.5786133,7.52148438 L11.5786133,14.5292969 Z" id="Combined-Shape"></path>
        </g>
    </g>
</svg>