<?xml version="1.0" encoding="UTF-8" standalone="no"?>
<svg width="30px" height="30px" viewBox="0 0 30 30" version="1.1" xmlns="http://www.w3.org/2000/svg" xmlns:xlink="http://www.w3.org/1999/xlink">
    <!-- Generator: Sketch 39.1 (31720) - http://www.bohemiancoding.com/sketch -->
    <title>S</title>
    <desc>Created with Sketch.</desc>
    <defs></defs>
    <g id="Page-1" stroke="none" stroke-width="1" fill="none" fill-rule="evenodd">
        <g id="S" fill="#000000">
            <path d="M0,5.00443555 C0,2.24056212 2.2303666,0 5.00443555,0 L24.9955644,0 C27.7594379,0 30,2.2303666 30,5.00443555 L30,24.9955644 C30,27.7594379 27.7696334,30 24.9955644,30 L5.00443555,30 C2.24056212,30 0,27.7696334 0,24.9955644 L0,5.00443555 Z M19.284668,19.328125 C19.284668,18.8964822 19.2190762,18.5156267 19.0878906,18.1855469 C18.9567051,17.8554671 18.72396,17.5528985 18.3896484,17.277832 C18.0553369,17.0027656 17.6046578,16.7446301 17.0375977,16.503418 C16.4705375,16.2622058 15.7511437,16.0146497 14.8793945,15.7607422 C13.9653275,15.4983711 13.1380245,15.2000342 12.3974609,14.8657227 C11.6568973,14.5314111 11.0263698,14.1463238 10.5058594,13.7104492 C9.98534896,13.2745746 9.58545062,12.7773465 9.30615234,12.21875 C9.02685407,11.6601535 8.88720703,11.0211625 8.88720703,10.3017578 C8.88720703,9.58235317 9.03743339,8.91585593 9.33789062,8.30224609 C9.63834786,7.68863625 10.0636366,7.15543846 10.6137695,6.70263672 C11.1639025,6.24983498 11.8240521,5.89648564 12.5942383,5.64257812 C13.3644244,5.38867061 14.2234653,5.26171875 15.1713867,5.26171875 C16.2124075,5.26171875 17.1391561,5.41829271 17.9516602,5.73144531 C18.7641642,6.04459792 19.4475884,6.45930731 20.0019531,6.97558594 C20.5563179,7.49186456 20.9773749,8.08853828 21.2651367,8.765625 C21.5528986,9.44271172 21.6967773,10.1409469 21.6967773,10.8603516 L19.246582,10.8603516 C19.246582,10.3440729 19.1640633,9.86588762 18.9990234,9.42578125 C18.8339835,8.98567488 18.5821957,8.60481932 18.2436523,8.28320312 C17.905109,7.96158693 17.4819361,7.71191495 16.9741211,7.53417969 C16.4663061,7.35644442 15.8654006,7.26757812 15.1713867,7.26757812 C14.5196908,7.26757812 13.9526391,7.34374924 13.4702148,7.49609375 C12.9877906,7.64843826 12.5900081,7.85790882 12.2768555,8.12451172 C11.9637029,8.39111461 11.7309578,8.70637839 11.5786133,9.0703125 C11.4262688,9.43424661 11.3500977,9.83202909 11.3500977,10.2636719 C11.3500977,10.6529967 11.4326164,11.0084619 11.5976562,11.3300781 C11.7626961,11.6516943 12.0187157,11.9479153 12.3657227,12.21875 C12.7127296,12.4895847 13.159177,12.7392567 13.7050781,12.9677734 C14.2509793,13.1962902 14.9047813,13.4163401 15.6665039,13.6279297 C16.7159883,13.9241551 17.6215782,14.2521141 18.3833008,14.6118164 C19.1450233,14.9715187 19.773435,15.3798805 20.2685547,15.8369141 C20.7636744,16.2939476 21.1318347,16.8059867 21.3730469,17.3730469 C21.614259,17.940107 21.7348633,18.5833297 21.7348633,19.3027344 C21.7348633,20.0559933 21.5825211,20.7373016 21.277832,21.3466797 C20.973143,21.9560577 20.5393908,22.4765603 19.9765625,22.9082031 C19.4137342,23.3398459 18.7366576,23.6720366 17.9453125,23.9047852 C17.1539674,24.1375337 16.271652,24.2539062 15.2983398,24.2539062 C14.7312797,24.2539062 14.1642281,24.2010096 13.597168,24.0952148 C13.0301078,23.98942 12.4863307,23.8307302 11.9658203,23.6191406 C11.4453099,23.407551 10.9628928,23.1451839 10.5185547,22.8320312 C10.0742165,22.5188786 9.68701337,22.15495 9.35693359,21.7402344 C9.02685382,21.3255188 8.76871838,20.8600286 8.58251953,20.34375 C8.39632068,19.8274714 8.30322266,19.2604198 8.30322266,18.6425781 L10.753418,18.6425781 C10.753418,19.2773469 10.878254,19.821124 11.1279297,20.2739258 C11.3776054,20.7267275 11.711912,21.1012355 12.1308594,21.3974609 C12.5498068,21.6936864 13.0322238,21.9116204 13.578125,22.0512695 C14.1240262,22.1909187 14.6974254,22.2607422 15.2983398,22.2607422 C16.5848046,22.2607422 17.5707974,21.998375 18.2563477,21.4736328 C18.941898,20.9488906 19.284668,20.2337285 19.284668,19.328125 Z" id="Combined-Shape"></path>
        </g>
    </g>
</svg>