<?xml version="1.0" encoding="UTF-8" standalone="no"?>
<svg width="30px" height="30px" viewBox="0 0 30 30" version="1.1" xmlns="http://www.w3.org/2000/svg" xmlns:xlink="http://www.w3.org/1999/xlink">
    <!-- Generator: Sketch 39.1 (31720) - http://www.bohemiancoding.com/sketch -->
    <title>U</title>
    <desc>Created with Sketch.</desc>
    <defs></defs>
    <g id="Page-1" stroke="none" stroke-width="1" fill="none" fill-rule="evenodd">
        <g id="U" fill="#000000">
            <path d="M0,5.00443555 C0,2.24056212 2.2303666,0 5.00443555,0 L24.9955644,0 C27.7594379,0 30,2.2303666 30,5.00443555 L30,24.9955644 C30,27.7594379 27.7696334,30 24.9955644,30 L5.00443555,30 C2.24056212,30 0,27.7696334 0,24.9955644 L0,5.00443555 Z M21.7285156,5.515625 L21.7285156,18.0332031 C21.7285156,19.074224 21.5465513,19.9840456 21.1826172,20.7626953 C20.8186831,21.541345 20.3299184,22.1887995 19.7163086,22.7050781 C19.1026988,23.2213567 18.3896525,23.6085599 17.5771484,23.8666992 C16.7646444,24.1248385 15.9098352,24.2539062 15.0126953,24.2539062 C14.0732375,24.2539062 13.1972697,24.1248385 12.3847656,23.8666992 C11.5722616,23.6085599 10.8676788,23.2213567 10.2709961,22.7050781 C9.67431342,22.1887995 9.20459156,21.541345 8.86181641,20.7626953 C8.51904125,19.9840456 8.34765625,19.074224 8.34765625,18.0332031 L8.34765625,5.515625 L10.7597656,5.515625 L10.7597656,18.0332031 C10.7597656,18.7526078 10.863443,19.3767877 11.0708008,19.9057617 C11.2781586,20.4347357 11.568032,20.8748355 11.9404297,21.2260742 C12.3128274,21.577313 12.7592747,21.8375643 13.2797852,22.0068359 C13.8002956,22.1761076 14.3779265,22.2607422 15.0126953,22.2607422 C15.6559277,22.2607422 16.2399062,22.1761076 16.7646484,22.0068359 C17.2893906,21.8375643 17.7379539,21.577313 18.1103516,21.2260742 C18.4827493,20.8748355 18.7705068,20.4347357 18.9736328,19.9057617 C19.1767588,19.3767877 19.2783203,18.7526078 19.2783203,18.0332031 L19.2783203,5.515625 L21.7285156,5.515625 Z" id="Combined-Shape"></path>
        </g>
    </g>
</svg>