<?xml version="1.0" encoding="UTF-8" standalone="no"?>
<svg width="30px" height="30px" viewBox="0 0 30 30" version="1.1" xmlns="http://www.w3.org/2000/svg" xmlns:xlink="http://www.w3.org/1999/xlink">
    <!-- Generator: Sketch 39.1 (31720) - http://www.bohemiancoding.com/sketch -->
    <title>W</title>
    <desc>Created with Sketch.</desc>
    <defs></defs>
    <g id="Page-1" stroke="none" stroke-width="1" fill="none" fill-rule="evenodd">
        <g id="W" fill="#000000">
            <path d="M0,5.00443555 C0,2.24056212 2.2303666,0 5.00443555,0 L24.9955644,0 C27.7594379,0 30,2.2303666 30,5.00443555 L30,24.9955644 C30,27.7594379 27.7696334,30 24.9955644,30 L5.00443555,30 C2.24056212,30 0,27.7696334 0,24.9955644 L0,5.00443555 Z M9.59814453,18.1728516 L9.95361328,20.6103516 L10.4741211,18.4140625 L14.1303711,5.515625 L16.1870117,5.515625 L19.7543945,18.4140625 L20.262207,20.6484375 L20.6557617,18.1601562 L23.5249023,5.515625 L25.9750977,5.515625 L21.4936523,24 L19.2719727,24 L15.4633789,10.5302734 L15.1713867,9.12109375 L14.8793945,10.5302734 L10.9311523,24 L8.70947266,24 L4.24072266,5.515625 L6.67822266,5.515625 L9.59814453,18.1728516 Z" id="Combined-Shape"></path>
        </g>
    </g>
</svg>