<?xml version="1.0" encoding="UTF-8" standalone="no"?>
<svg width="30px" height="30px" viewBox="0 0 30 30" version="1.1" xmlns="http://www.w3.org/2000/svg" xmlns:xlink="http://www.w3.org/1999/xlink">
    <!-- Generator: Sketch 39.1 (31720) - http://www.bohemiancoding.com/sketch -->
    <title>X</title>
    <desc>Created with Sketch.</desc>
    <defs></defs>
    <g id="Page-1" stroke="none" stroke-width="1" fill="none" fill-rule="evenodd">
        <g id="X" fill="#000000">
            <path d="M0,5.00443555 C0,2.24056212 2.2303666,0 5.00443555,0 L24.9955644,0 C27.7594379,0 30,2.2303666 30,5.00443555 L30,24.9955644 C30,27.7594379 27.7696334,30 24.9955644,30 L5.00443555,30 C2.24056212,30 0,27.7696334 0,24.9955644 L0,5.00443555 Z M15.0253906,12.5996094 L19.4560547,5.515625 L22.3251953,5.515625 L16.4853516,14.6816406 L22.4648438,24 L19.5703125,24 L15.0253906,16.7890625 L10.4550781,24 L7.57324219,24 L13.5654297,14.6816406 L7.71289062,5.515625 L10.5693359,5.515625 L15.0253906,12.5996094 Z" id="Combined-Shape"></path>
        </g>
    </g>
</svg>