<?xml version="1.0" standalone="no"?><!DOCTYPE svg PUBLIC "-//W3C//DTD SVG 1.1//EN" "http://www.w3.org/Graphics/SVG/1.1/DTD/svg11.dtd" ><svg xmlns="http://www.w3.org/2000/svg"><metadata>Generated by Glyphter</metadata><defs><font id="speechblocks" horiz-adv-x="0"><font-face units-per-em="1024" ascent="1024" descent="0" font-family="speechblocks" font-weight="normal" /><missing-glyph horiz-adv-x="0" /><glyph unicode="&#x0041;" d="M0,853.197C0,947.541,76.117,1024,170.803,1024C170.803,1024,853.197,1024,853.197,1024C947.507,1024,1024,947.883,1024,853.197C1024,853.197,1024,170.837,1024,170.837C1024,76.493,947.883,0,853.197,0C853.197,0,170.803,0,170.803,0C76.493,0,0,76.151,0,170.837C0,170.837,0,853.197,0,853.197C0,853.197,0,853.197,0,853.197M649.25,340.992C649.25,340.992,374.75,340.992,374.75,340.992C374.75,340.992,313.105,169.984,313.105,169.984C313.105,169.984,223.983,169.984,223.983,169.984C223.983,169.984,474.214,825.207,474.214,825.207C474.214,825.207,549.786,825.207,549.786,825.207C549.786,825.207,800.461,169.984,800.461,169.984C800.461,169.984,711.817,169.984,711.817,169.984C711.817,169.984,649.25,340.992,649.25,340.992C649.25,340.992,649.25,340.992,649.25,340.992M400.862,412.092C400.862,412.092,623.616,412.092,623.616,412.092C623.616,412.092,512,718.541,512,718.541C512,718.541,400.862,412.092,400.862,412.092C400.862,412.092,400.862,412.092,400.862,412.092" class="icon-A"/><glyph unicode="&#x0042;" d="M0,853.197C0,947.541,76.117,1024,170.803,1024C170.803,1024,853.197,1024,853.197,1024C947.507,1024,1024,947.883,1024,853.197C1024,853.197,1024,170.837,1024,170.837C1024,76.493,947.883,0,853.197,0C853.197,0,170.803,0,170.803,0C76.493,0,0,76.151,0,170.837C0,170.837,0,853.197,0,853.197C0,853.197,0,853.197,0,853.197M318.293,204.8C318.293,204.8,318.293,835.755,318.293,835.755C318.293,835.755,524.561,835.755,524.561,835.755C556.919,835.755,585.796,832.512,611.226,825.993C636.655,819.507,658.227,809.404,676.011,795.648C693.76,781.926,707.345,764.553,716.732,743.458C726.118,722.364,730.829,697.071,730.829,667.614C730.829,638.157,722.432,612.079,705.707,589.414C688.947,566.716,666.112,549.171,637.235,536.747C654.848,531.831,670.515,524.629,684.237,515.072C697.958,505.549,709.53,494.285,718.916,481.28C728.303,468.275,735.437,453.7,740.352,437.521C745.267,421.342,747.725,404.446,747.725,386.799C747.725,357.342,742.741,331.264,732.774,308.599C722.807,285.935,708.71,266.854,690.517,251.392C672.324,235.93,650.377,224.324,624.674,216.508C598.938,208.725,570.334,204.8,538.863,204.8C538.863,204.8,318.293,204.8,318.293,204.8C318.293,204.8,318.293,204.8,318.293,204.8M401.476,499.917C401.476,499.917,401.476,272.862,401.476,272.862C401.476,272.862,538.863,272.862,538.863,272.862C558.797,272.862,576.478,275.524,591.94,280.849C607.403,286.208,620.476,293.717,631.159,303.411C641.843,313.071,650.001,324.915,655.633,338.944C661.265,352.939,664.098,368.606,664.098,385.946C664.098,403.285,661.777,419.021,657.169,433.186C652.527,447.351,645.257,459.332,635.29,469.163C625.323,478.959,612.659,486.571,597.367,491.895C582.042,497.254,563.849,499.917,542.754,499.917C542.754,499.917,401.476,499.917,401.476,499.917C401.476,499.917,401.476,499.917,401.476,499.917M401.476,566.647C401.476,566.647,527.155,566.647,527.155,566.647C545.075,566.647,561.391,568.969,576.137,573.577C590.848,578.219,603.511,584.841,614.059,593.51C624.572,602.18,632.764,612.796,638.532,625.357C644.301,637.918,647.202,652.151,647.202,668.058C647.202,702.703,637.065,727.927,616.858,743.663C596.651,759.398,565.862,767.283,524.561,767.283C524.561,767.283,401.476,767.283,401.476,767.283C401.476,767.283,401.476,566.647,401.476,566.647C401.476,566.647,401.476,566.647,401.476,566.647" class="icon-B"/><glyph unicode="&#x0043;" d="M0,853.197C0,947.541,76.117,1024,170.803,1024C170.803,1024,853.197,1024,853.197,1024C947.507,1024,1024,947.883,1024,853.197C1024,853.197,1024,170.837,1024,170.837C1024,76.493,947.883,0,853.197,0C853.197,0,170.803,0,170.803,0C76.493,0,0,76.151,0,170.837C0,170.837,0,853.197,0,853.197C0,853.197,0,853.197,0,853.197M760.525,405.026C757.043,375.262,749.739,347.614,738.645,322.048C727.518,296.448,712.124,274.364,692.497,255.727C672.836,237.09,648.875,222.515,620.544,211.968C592.247,201.421,559.172,196.164,521.318,196.164C484.045,196.164,450.253,203.093,419.908,216.951C389.598,230.81,363.657,250.539,342.118,276.105C320.614,301.67,303.991,332.356,292.284,368.196C280.61,404.002,274.739,444.006,274.739,488.209C274.739,488.209,274.739,551.492,274.739,551.492C274.739,595.695,280.678,635.767,292.523,671.744C304.367,707.686,321.263,738.475,343.211,764.041C365.158,789.606,391.817,809.404,423.151,823.398C454.519,837.393,489.677,844.425,528.691,844.425C564.224,844.425,595.695,839.202,623.138,828.826C650.581,818.415,673.929,803.908,693.146,785.271C712.329,766.635,727.586,744.38,738.85,718.541C750.114,692.668,757.35,664.132,760.525,632.934C760.525,632.934,676.898,632.934,676.898,632.934C673.69,654.916,668.809,674.679,662.153,692.326C655.497,709.939,646.349,724.958,634.641,737.382C622.933,749.807,608.427,759.33,591.087,765.986C573.747,772.642,552.96,775.953,528.691,775.953C500.668,775.953,476.023,770.526,454.793,759.706C433.562,748.851,415.812,733.696,401.51,714.206C387.209,694.682,376.422,671.164,369.22,643.55C361.984,615.97,358.4,585.557,358.4,552.346C358.4,552.346,358.4,488.209,358.4,488.209C358.4,457.318,361.643,428.271,368.128,401.101C374.647,373.965,384.512,350.208,397.824,329.83C411.102,309.453,427.998,293.444,448.512,281.737C469.026,270.029,493.295,264.192,521.318,264.192C547.908,264.192,570.3,267.366,588.493,273.715C606.686,280.064,621.773,289.246,633.754,301.227C645.769,313.207,655.087,327.953,661.709,345.429C668.365,362.906,673.417,382.771,676.898,405.026C676.898,405.026,760.525,405.026,760.525,405.026C760.525,405.026,760.525,405.026,760.525,405.026" class="icon-C"/><glyph unicode="&#x0044;" d="M0,853.197C0,947.541,76.117,1024,170.803,1024C170.803,1024,853.197,1024,853.197,1024C947.507,1024,1024,947.883,1024,853.197C1024,853.197,1024,170.837,1024,170.837C1024,76.493,947.883,0,853.197,0C853.197,0,170.803,0,170.803,0C76.493,0,0,76.151,0,170.837C0,170.837,0,853.197,0,853.197C0,853.197,0,853.197,0,853.197M294.263,204.8C294.263,204.8,294.263,835.755,294.263,835.755C294.263,835.755,472.337,835.755,472.337,835.755C513.946,835.755,551.799,828.826,585.899,814.933C619.964,801.075,649.216,781.278,673.621,755.575C698.061,729.873,716.971,698.675,730.385,661.982C743.834,625.289,750.558,584.124,750.558,538.487C750.558,538.487,750.558,501.214,750.558,501.214C750.558,455.578,743.834,414.413,730.385,377.719C716.971,341.026,697.89,309.897,673.212,284.331C648.499,258.765,618.53,239.104,583.27,225.382C548.045,211.661,508.621,204.8,464.998,204.8C464.998,204.8,294.263,204.8,294.263,204.8C294.263,204.8,294.263,204.8,294.263,204.8M377.446,767.283C377.446,767.283,377.446,272.862,377.446,272.862C377.446,272.862,464.998,272.862,464.998,272.862C498.483,272.862,527.974,278.255,553.37,289.109C578.799,299.93,600.03,315.324,617.097,335.258C634.129,355.191,646.895,379.153,655.428,407.177C663.962,435.2,668.228,466.534,668.228,501.214C668.228,501.214,668.228,539.785,668.228,539.785C668.228,575.898,663.893,608.017,655.223,636.211C646.554,664.371,633.856,688.196,617.097,707.686C600.337,727.211,579.823,741.99,555.554,752.128C531.285,762.231,503.535,767.283,472.337,767.283C472.337,767.283,377.446,767.283,377.446,767.283C377.446,767.283,377.446,767.283,377.446,767.283" class="icon-D"/><glyph unicode="&#x0045;" d="M0,853.197C0,947.541,76.117,1024,170.803,1024C170.803,1024,853.197,1024,853.197,1024C947.507,1024,1024,947.883,1024,853.197C1024,853.197,1024,170.837,1024,170.837C1024,76.493,947.883,0,853.197,0C853.197,0,170.803,0,170.803,0C76.493,0,0,76.151,0,170.837C0,170.837,0,853.197,0,853.197C0,853.197,0,853.197,0,853.197M689.664,496.435C689.664,496.435,416.222,496.435,416.222,496.435C416.222,496.435,416.222,272.862,416.222,272.862C416.222,272.862,733.867,272.862,733.867,272.862C733.867,272.862,733.867,204.8,733.867,204.8C733.867,204.8,333.039,204.8,333.039,204.8C333.039,204.8,333.039,835.755,333.039,835.755C333.039,835.755,729.532,835.755,729.532,835.755C729.532,835.755,729.532,767.283,729.532,767.283C729.532,767.283,416.222,767.283,416.222,767.283C416.222,767.283,416.222,564.497,416.222,564.497C416.222,564.497,689.664,564.497,689.664,564.497C689.664,564.497,689.664,496.435,689.664,496.435C689.664,496.435,689.664,496.435,689.664,496.435" class="icon-E"/><glyph unicode="&#x0046;" d="M0,853.197C0,947.541,76.117,1024,170.803,1024C170.803,1024,853.197,1024,853.197,1024C947.507,1024,1024,947.883,1024,853.197C1024,853.197,1024,170.837,1024,170.837C1024,76.493,947.883,0,853.197,0C853.197,0,170.803,0,170.803,0C76.493,0,0,76.151,0,170.837C0,170.837,0,853.197,0,853.197C0,853.197,0,853.197,0,853.197M687.923,483.465C687.923,483.465,423.151,483.465,423.151,483.465C423.151,483.465,423.151,204.8,423.151,204.8C423.151,204.8,339.968,204.8,339.968,204.8C339.968,204.8,339.968,835.755,339.968,835.755C339.968,835.755,730.829,835.755,730.829,835.755C730.829,835.755,730.829,767.283,730.829,767.283C730.829,767.283,423.151,767.283,423.151,767.283C423.151,767.283,423.151,551.492,423.151,551.492C423.151,551.492,687.923,551.492,687.923,551.492C687.923,551.492,687.923,483.465,687.923,483.465C687.923,483.465,687.923,483.465,687.923,483.465" class="icon-F"/><glyph unicode="&#x0047;" d="M0,853.197C0,947.541,76.117,1024,170.803,1024C170.803,1024,853.197,1024,853.197,1024C947.507,1024,1024,947.883,1024,853.197C1024,853.197,1024,170.837,1024,170.837C1024,76.493,947.883,0,853.197,0C853.197,0,170.803,0,170.803,0C76.493,0,0,76.151,0,170.837C0,170.837,0,853.197,0,853.197C0,853.197,0,853.197,0,853.197M748.817,287.573C742.741,278.903,734.379,269.312,723.695,258.765C713.011,248.218,698.914,238.319,681.438,229.069C663.962,219.853,642.492,212.036,617.097,205.687C591.667,199.339,561.186,196.164,525.653,196.164C487.219,196.164,451.925,202.923,419.703,216.508C387.482,230.093,359.765,249.651,336.486,275.217C313.242,300.783,295.117,332.151,282.112,369.254C269.107,406.391,262.622,448.478,262.622,495.582C262.622,495.582,262.622,544.973,262.622,544.973C262.622,592.077,268.186,634.095,279.313,671.095C290.406,708.062,306.756,739.396,328.26,765.099C349.798,790.835,376.286,810.462,407.791,824.047C439.262,837.632,475.375,844.425,516.13,844.425C552.243,844.425,583.851,839.578,611.021,829.884C638.157,820.224,661.299,806.775,680.346,789.606C699.426,772.403,714.581,751.957,725.845,728.269C737.109,704.58,744.755,678.741,748.817,650.718C748.817,650.718,665.6,650.718,665.6,650.718C662.426,667.75,657.442,683.861,650.684,699.017C643.891,714.206,634.573,727.484,622.729,738.884C610.884,750.319,596.275,759.33,578.935,765.986C561.63,772.642,540.809,775.953,516.54,775.953C487.083,775.953,461.653,770.594,440.286,759.91C418.918,749.227,401.271,733.901,387.413,713.967C373.555,694.033,363.213,669.935,356.42,641.604C349.628,613.308,346.249,581.393,346.249,545.86C346.249,545.86,346.249,495.582,346.249,495.582C346.249,459.196,350.583,426.667,359.253,398.097C367.923,369.493,380.109,345.225,395.878,325.291C411.614,305.357,430.524,290.167,452.642,279.791C474.726,269.38,499.2,264.192,526.097,264.192C548.625,264.192,567.74,265.694,583.509,268.732C599.245,271.77,612.523,275.524,623.377,279.996C634.197,284.467,642.935,289.382,649.591,294.741C656.213,300.066,661.709,305.05,666.044,309.692C666.044,309.692,666.044,451.379,666.044,451.379C666.044,451.379,520.021,451.379,520.021,451.379C520.021,451.379,520.021,518.997,520.021,518.997C520.021,518.997,748.817,518.997,748.817,518.997C748.817,518.997,748.817,287.573,748.817,287.573C748.817,287.573,748.817,287.573,748.817,287.573" class="icon-G"/><glyph unicode="&#x0048;" d="M0,853.197C0,947.541,76.117,1024,170.803,1024C170.803,1024,853.197,1024,853.197,1024C947.507,1024,1024,947.883,1024,853.197C1024,853.197,1024,170.837,1024,170.837C1024,76.493,947.883,0,853.197,0C853.197,0,170.803,0,170.803,0C76.493,0,0,76.151,0,170.837C0,170.837,0,853.197,0,853.197C0,853.197,0,853.197,0,853.197M753.801,204.8C753.801,204.8,670.174,204.8,670.174,204.8C670.174,204.8,670.174,496.435,670.174,496.435C670.174,496.435,352.085,496.435,352.085,496.435C352.085,496.435,352.085,204.8,352.085,204.8C352.085,204.8,268.902,204.8,268.902,204.8C268.902,204.8,268.902,835.755,268.902,835.755C268.902,835.755,352.085,835.755,352.085,835.755C352.085,835.755,352.085,564.497,352.085,564.497C352.085,564.497,670.174,564.497,670.174,564.497C670.174,564.497,670.174,835.755,670.174,835.755C670.174,835.755,753.801,835.755,753.801,835.755C753.801,835.755,753.801,204.8,753.801,204.8C753.801,204.8,753.801,204.8,753.801,204.8" class="icon-H"/><glyph unicode="&#x0049;" d="M0,853.197C0,947.541,76.117,1024,170.803,1024C170.803,1024,853.197,1024,853.197,1024C947.507,1024,1024,947.883,1024,853.197C1024,853.197,1024,170.837,1024,170.837C1024,76.493,947.883,0,853.197,0C853.197,0,170.803,0,170.803,0C76.493,0,0,76.151,0,170.837C0,170.837,0,853.197,0,853.197C0,853.197,0,853.197,0,853.197M553.813,204.8C553.813,204.8,470.63,204.8,470.63,204.8C470.63,204.8,470.63,835.755,470.63,835.755C470.63,835.755,553.813,835.755,553.813,835.755C553.813,835.755,553.813,204.8,553.813,204.8C553.813,204.8,553.813,204.8,553.813,204.8" class="icon-I"/><glyph unicode="&#x004a;" d="M0,853.197C0,947.541,76.117,1024,170.803,1024C170.803,1024,853.197,1024,853.197,1024C947.507,1024,1024,947.883,1024,853.197C1024,853.197,1024,170.837,1024,170.837C1024,76.493,947.883,0,853.197,0C853.197,0,170.803,0,170.803,0C76.493,0,0,76.151,0,170.837C0,170.837,0,853.197,0,853.197C0,853.197,0,853.197,0,853.197M604.74,835.755C604.74,835.755,688.367,835.755,688.367,835.755C688.367,835.755,688.367,388.983,688.367,388.983C688.367,357.786,683.452,330.138,673.621,306.005C663.825,281.873,650.001,261.734,632.252,245.555C614.468,229.376,593.408,217.088,568.969,208.725C544.563,200.329,517.939,196.164,489.028,196.164C459.844,196.164,433.118,199.817,408.883,207.189C384.614,214.562,363.657,225.826,346.044,240.981C328.397,256.171,314.675,275.217,304.879,298.189C295.049,321.161,290.133,348.092,290.133,379.017C290.133,379.017,373.35,379.017,373.35,379.017C373.316,359.083,376.218,341.879,381.986,327.441C387.789,313.003,395.708,301.09,405.845,291.703C415.949,282.317,428.066,275.388,442.231,270.882C456.397,266.411,471.996,264.192,489.028,264.192C505.515,264.192,520.806,266.854,534.972,272.213C549.137,277.538,561.391,285.423,571.802,295.799C582.212,306.21,590.302,319.215,596.07,334.814C601.839,350.413,604.74,368.469,604.74,388.983C604.74,388.983,604.74,835.755,604.74,835.755C604.74,835.755,604.74,835.755,604.74,835.755" class="icon-J"/><glyph unicode="&#x004b;" d="M0,853.197C0,947.541,76.117,1024,170.803,1024C170.803,1024,853.197,1024,853.197,1024C947.507,1024,1024,947.883,1024,853.197C1024,853.197,1024,170.837,1024,170.837C1024,76.493,947.883,0,853.197,0C853.197,0,170.803,0,170.803,0C76.493,0,0,76.151,0,170.837C0,170.837,0,853.197,0,853.197C0,853.197,0,853.197,0,853.197M467.354,498.176C467.354,498.176,390.246,418.031,390.246,418.031C390.246,418.031,390.246,204.8,390.246,204.8C390.246,204.8,307.029,204.8,307.029,204.8C307.029,204.8,307.029,835.755,307.029,835.755C307.029,835.755,390.246,835.755,390.246,835.755C390.246,835.755,390.246,523.742,390.246,523.742C390.246,523.742,458.684,600.03,458.684,600.03C458.684,600.03,670.583,835.755,670.583,835.755C670.583,835.755,771.14,835.755,771.14,835.755C771.14,835.755,522.82,557.124,522.82,557.124C522.82,557.124,790.63,204.8,790.63,204.8C790.63,204.8,690.961,204.8,690.961,204.8C690.961,204.8,467.354,498.176,467.354,498.176C467.354,498.176,467.354,498.176,467.354,498.176" class="icon-K"/><glyph unicode="&#x004c;" d="M0,853.197C0,947.541,76.117,1024,170.803,1024C170.803,1024,853.197,1024,853.197,1024C947.507,1024,1024,947.883,1024,853.197C1024,853.197,1024,170.837,1024,170.837C1024,76.493,947.883,0,853.197,0C853.197,0,170.803,0,170.803,0C76.493,0,0,76.151,0,170.837C0,170.837,0,853.197,0,853.197C0,853.197,0,853.197,0,853.197M430.114,272.862C430.114,272.862,729.088,272.862,729.088,272.862C729.088,272.862,729.088,204.8,729.088,204.8C729.088,204.8,346.453,204.8,346.453,204.8C346.453,204.8,346.453,835.755,346.453,835.755C346.453,835.755,430.114,835.755,430.114,835.755C430.114,835.755,430.114,272.862,430.114,272.862C430.114,272.862,430.114,272.862,430.114,272.862" class="icon-L"/><glyph unicode="&#x004d;" d="M0,853.197C0,947.541,76.117,1024,170.803,1024C170.803,1024,853.197,1024,853.197,1024C947.507,1024,1024,947.883,1024,853.197C1024,853.197,1024,170.837,1024,170.837C1024,76.493,947.883,0,853.197,0C853.197,0,170.803,0,170.803,0C76.493,0,0,76.151,0,170.837C0,170.837,0,853.197,0,853.197C0,853.197,0,853.197,0,853.197M305.289,835.755C305.289,835.755,511.556,320.956,511.556,320.956C511.556,320.956,717.824,835.755,717.824,835.755C717.824,835.755,825.719,835.755,825.719,835.755C825.719,835.755,825.719,204.8,825.719,204.8C825.719,204.8,742.537,204.8,742.537,204.8C742.537,204.8,742.537,450.526,742.537,450.526C742.537,450.526,750.319,715.708,750.319,715.708C750.319,715.708,543.198,204.8,543.198,204.8C543.198,204.8,479.505,204.8,479.505,204.8C479.505,204.8,272.794,714.411,272.794,714.411C272.794,714.411,281.02,450.526,281.02,450.526C281.02,450.526,281.02,204.8,281.02,204.8C281.02,204.8,197.837,204.8,197.837,204.8C197.837,204.8,197.837,835.755,197.837,835.755C197.837,835.755,305.289,835.755,305.289,835.755C305.289,835.755,305.289,835.755,305.289,835.755" class="icon-M"/><glyph unicode="&#x004e;" d="M0,853.197C0,947.541,76.117,1024,170.803,1024C170.803,1024,853.197,1024,853.197,1024C947.507,1024,1024,947.883,1024,853.197C1024,853.197,1024,170.837,1024,170.837C1024,76.493,947.883,0,853.197,0C853.197,0,170.803,0,170.803,0C76.493,0,0,76.151,0,170.837C0,170.837,0,853.197,0,853.197C0,853.197,0,853.197,0,853.197M753.801,204.8C753.801,204.8,670.174,204.8,670.174,204.8C670.174,204.8,352.529,691.029,352.529,691.029C352.529,691.029,352.529,204.8,352.529,204.8C352.529,204.8,268.902,204.8,268.902,204.8C268.902,204.8,268.902,835.755,268.902,835.755C268.902,835.755,352.529,835.755,352.529,835.755C352.529,835.755,671.027,347.375,671.027,347.375C671.027,347.375,671.027,835.755,671.027,835.755C671.027,835.755,753.801,835.755,753.801,835.755C753.801,835.755,753.801,204.8,753.801,204.8C753.801,204.8,753.801,204.8,753.801,204.8" class="icon-N"/><glyph unicode="&#x004f;" d="M0,853.197C0,947.541,76.117,1024,170.803,1024C170.803,1024,853.197,1024,853.197,1024C947.507,1024,1024,947.883,1024,853.197C1024,853.197,1024,170.837,1024,170.837C1024,76.493,947.883,0,853.197,0C853.197,0,170.803,0,170.803,0C76.493,0,0,76.151,0,170.837C0,170.837,0,853.197,0,853.197C0,853.197,0,853.197,0,853.197M765.508,499.917C765.508,452.54,759.501,410.146,747.52,372.736C735.539,335.326,718.541,303.479,696.593,277.197C674.645,250.88,648.055,230.81,616.858,216.951C585.66,203.093,550.844,196.164,512.444,196.164C475.17,196.164,440.934,203.093,409.737,216.951C378.539,230.81,351.676,250.88,329.148,277.197C306.586,303.479,289.109,335.326,276.685,372.736C264.294,410.146,258.082,452.54,258.082,499.917C258.082,499.917,258.082,539.785,258.082,539.785C258.082,586.854,264.294,629.248,276.685,666.965C289.109,704.649,306.449,736.666,328.704,762.948C350.959,789.231,377.651,809.404,408.883,823.398C440.081,837.393,474.317,844.425,511.556,844.425C549.99,844.425,584.875,837.393,616.209,823.398C647.578,809.404,674.27,789.231,696.388,762.948C718.473,736.666,735.539,704.649,747.52,666.965C759.501,629.248,765.508,586.854,765.508,539.785C765.508,539.785,765.508,499.917,765.508,499.917C765.508,499.917,765.508,499.917,765.508,499.917M682.735,540.638C682.735,578.219,678.912,611.43,671.266,640.307C663.586,669.218,652.39,693.487,637.679,713.114C622.933,732.774,604.945,747.622,583.714,757.76C562.483,767.863,538.419,772.915,511.556,772.915C485.854,772.915,462.473,767.863,441.378,757.76C420.284,747.622,402.295,732.774,387.413,713.114C372.531,693.487,361.062,669.218,352.973,640.307C344.883,611.43,340.821,578.219,340.821,540.638C340.821,540.638,340.821,499.917,340.821,499.917C340.821,462.063,344.951,428.715,353.178,399.804C361.404,370.927,373.043,346.59,388.062,326.793C403.081,306.995,421.137,292.045,442.231,281.941C463.326,271.838,486.707,266.786,512.444,266.786C539.58,266.786,563.712,271.838,584.806,281.941C605.901,292.045,623.718,306.995,638.327,326.793C652.902,346.59,663.962,370.927,671.471,399.804C678.98,428.715,682.735,462.063,682.735,499.917C682.735,499.917,682.735,540.638,682.735,540.638C682.735,540.638,682.735,540.638,682.735,540.638" class="icon-O"/><glyph unicode="&#x0050;" d="M0,853.197C0,947.541,76.117,1024,170.803,1024C170.803,1024,853.197,1024,853.197,1024C947.507,1024,1024,947.883,1024,853.197C1024,853.197,1024,170.837,1024,170.837C1024,76.493,947.883,0,853.197,0C853.197,0,170.803,0,170.803,0C76.493,0,0,76.151,0,170.837C0,170.837,0,853.197,0,853.197C0,853.197,0,853.197,0,853.197M388.506,451.823C388.506,451.823,388.506,204.8,388.506,204.8C388.506,204.8,305.289,204.8,305.289,204.8C305.289,204.8,305.289,835.755,305.289,835.755C305.289,835.755,538.01,835.755,538.01,835.755C573.815,835.755,605.457,830.976,632.9,821.453C660.343,811.93,683.383,798.549,702.02,781.38C720.657,764.177,734.822,743.799,744.482,720.282C754.176,696.73,758.989,670.925,758.989,642.901C758.989,612.591,754.176,585.489,744.482,561.664C734.822,537.839,720.657,517.837,702.02,501.658C683.383,485.478,660.343,473.122,632.9,464.589C605.457,456.09,573.815,451.823,538.01,451.823C538.01,451.823,388.506,451.823,388.506,451.823C388.506,451.823,388.506,451.823,388.506,451.823M388.506,519.851C388.506,519.851,538.01,519.851,538.01,519.851C562.278,519.851,583.134,522.889,600.61,528.964C618.086,535.006,632.388,543.471,643.516,554.291C654.643,565.146,662.801,577.98,667.989,592.862C673.212,607.744,675.806,624.128,675.806,642.048C675.806,658.227,673.212,673.894,667.989,689.05C662.801,704.239,654.643,717.585,643.516,729.156C632.388,740.693,618.086,749.943,600.61,756.873C583.134,763.802,562.278,767.283,538.01,767.283C538.01,767.283,388.506,767.283,388.506,767.283C388.506,767.283,388.506,519.851,388.506,519.851C388.506,519.851,388.506,519.851,388.506,519.851" class="icon-P"/><glyph unicode="&#x0051;" d="M0,853.197C0,947.541,76.117,1024,170.803,1024C170.803,1024,853.197,1024,853.197,1024C947.507,1024,1024,947.883,1024,853.197C1024,853.197,1024,170.837,1024,170.837C1024,76.493,947.883,0,853.197,0C853.197,0,170.803,0,170.803,0C76.493,0,0,76.151,0,170.837C0,170.837,0,853.197,0,853.197C0,853.197,0,853.197,0,853.197M762.027,499.917C762.027,438.955,752.367,386.458,733.013,342.391C713.66,298.359,686.49,263.885,651.537,239.036C651.537,239.036,764.211,150.665,764.211,150.665C764.211,150.665,707.447,98.202,707.447,98.202C707.447,98.202,574.396,203.947,574.396,203.947C553.609,198.758,531.661,196.164,508.518,196.164C471.279,196.164,437.043,203.093,405.845,216.951C374.647,230.81,347.75,250.88,325.222,277.197C302.694,303.479,285.218,335.326,272.794,372.736C260.369,410.146,254.157,452.54,254.157,499.917C254.157,499.917,254.157,539.785,254.157,539.785C254.157,586.854,260.369,629.248,272.794,666.965C285.218,704.649,302.558,736.666,324.813,762.948C347.034,789.231,373.76,809.404,404.958,823.398C436.156,837.393,470.391,844.425,507.665,844.425C546.099,844.425,580.983,837.393,612.318,823.398C643.652,809.404,670.447,789.231,692.702,762.948C714.957,736.666,732.058,704.649,744.038,666.965C756.053,629.248,762.027,586.854,762.027,539.785C762.027,539.785,762.027,499.917,762.027,499.917C762.027,499.917,762.027,499.917,762.027,499.917M678.844,540.638C678.844,578.219,675.021,611.43,667.341,640.307C659.695,669.218,648.567,693.487,633.993,713.114C619.383,732.774,601.498,747.622,580.267,757.76C559.002,767.863,534.835,772.915,507.665,772.915C481.963,772.915,458.615,767.863,437.692,757.76C416.734,747.622,398.814,732.774,383.966,713.114C369.084,693.487,357.581,669.218,349.491,640.307C341.402,611.43,337.374,578.219,337.374,540.638C337.374,540.638,337.374,499.917,337.374,499.917C337.374,462.063,341.47,428.715,349.73,399.804C357.956,370.927,369.493,346.59,384.375,326.793C399.258,306.995,417.246,292.045,438.34,281.941C459.435,271.838,482.816,266.786,508.518,266.786C535.689,266.786,559.821,271.838,580.915,281.941C601.975,292.045,619.827,306.995,634.402,326.793C649.011,346.59,660.07,370.927,667.58,399.804C675.089,428.715,678.844,462.063,678.844,499.917C678.844,499.917,678.844,540.638,678.844,540.638C678.844,540.638,678.844,540.638,678.844,540.638" class="icon-Q"/><glyph unicode="&#x0052;" d="M0,853.197C0,947.541,76.117,1024,170.803,1024C170.803,1024,853.197,1024,853.197,1024C947.507,1024,1024,947.883,1024,853.197C1024,853.197,1024,170.837,1024,170.837C1024,76.493,947.883,0,853.197,0C853.197,0,170.803,0,170.803,0C76.493,0,0,76.151,0,170.837C0,170.837,0,853.197,0,853.197C0,853.197,0,853.197,0,853.197M543.403,460.049C543.403,460.049,395.23,460.049,395.23,460.049C395.23,460.049,395.23,204.8,395.23,204.8C395.23,204.8,311.569,204.8,311.569,204.8C311.569,204.8,311.569,835.755,311.569,835.755C311.569,835.755,520.465,835.755,520.465,835.755C591.531,835.755,646.178,819.575,684.476,787.217C722.739,754.859,741.888,707.755,741.888,645.939C741.888,606.652,731.273,572.416,710.042,543.232C688.811,514.082,659.251,492.271,621.431,477.798C621.431,477.798,769.604,210.022,769.604,210.022C769.604,210.022,769.604,204.8,769.604,204.8C769.604,204.8,680.346,204.8,680.346,204.8C680.346,204.8,543.403,460.049,543.403,460.049C543.403,460.049,543.403,460.049,543.403,460.049M395.23,528.077C395.23,528.077,523.059,528.077,523.059,528.077C545.587,528.077,565.316,531.183,582.212,537.395C599.108,543.607,613.171,551.97,624.435,562.517C635.733,573.065,644.164,585.489,649.796,599.791C655.428,614.093,658.261,629.487,658.261,645.939C658.261,664.132,655.565,680.687,650.24,695.569C644.881,710.451,636.587,723.217,625.323,733.901C614.059,744.619,599.757,752.845,582.417,758.613C565.077,764.382,544.427,767.283,520.465,767.283C520.465,767.283,395.23,767.283,395.23,767.283C395.23,767.283,395.23,528.077,395.23,528.077C395.23,528.077,395.23,528.077,395.23,528.077" class="icon-R"/><glyph unicode="&#x0053;" d="M0,853.197C0,947.541,76.117,1024,170.803,1024C170.803,1024,853.197,1024,853.197,1024C947.507,1024,1024,947.883,1024,853.197C1024,853.197,1024,170.837,1024,170.837C1024,76.493,947.883,0,853.197,0C853.197,0,170.803,0,170.803,0C76.493,0,0,76.151,0,170.837C0,170.837,0,853.197,0,853.197C0,853.197,0,853.197,0,853.197M658.261,364.271C658.261,379.017,656.009,392.021,651.537,403.285C647.066,414.549,639.113,424.892,627.712,434.278C616.277,443.665,600.917,452.471,581.564,460.698C562.21,468.924,537.634,477.389,507.87,486.059C476.672,495.002,448.444,505.173,423.151,516.608C397.892,528.009,376.354,541.15,358.605,556.032C340.821,570.914,327.168,587.878,317.645,606.959C308.122,626.005,303.343,647.817,303.343,672.393C303.343,696.934,308.463,719.701,318.737,740.625C328.977,761.583,343.518,779.776,362.291,795.238C381.065,810.701,403.593,822.75,429.875,831.42C456.158,840.09,485.478,844.425,517.837,844.425C553.37,844.425,585.011,839.066,612.762,828.382C640.478,817.698,663.825,803.533,682.735,785.92C701.645,768.307,716.015,747.93,725.845,724.821C735.676,701.713,740.591,677.854,740.591,653.312C740.591,653.312,656.964,653.312,656.964,653.312C656.964,670.925,654.131,687.275,648.499,702.293C642.867,717.312,634.266,730.317,622.729,741.274C611.157,752.265,596.719,760.798,579.379,766.839C562.039,772.915,541.525,775.953,517.837,775.953C495.616,775.953,476.262,773.359,459.776,768.137C443.324,762.948,429.739,755.814,419.055,746.701C408.371,737.587,400.418,726.835,395.23,714.411C390.007,701.986,387.413,688.401,387.413,673.69C387.413,660.378,390.246,648.26,395.878,637.269C401.51,626.313,410.249,616.209,422.093,606.959C433.937,597.709,449.161,589.175,467.797,581.393C486.434,573.577,508.757,566.067,534.767,558.865C570.573,548.727,601.498,537.532,627.473,525.278C653.483,512.99,674.918,499.063,691.849,483.465C708.745,467.831,721.306,450.355,729.532,431.002C737.758,411.648,741.888,389.7,741.888,365.158C741.888,339.422,736.7,316.177,726.289,295.39C715.878,274.569,701.065,256.819,681.882,242.074C662.665,227.362,639.556,215.996,612.523,208.077C585.523,200.124,555.418,196.164,522.172,196.164C502.818,196.164,483.465,197.939,464.111,201.557C444.757,205.175,426.189,210.603,408.439,217.805C390.656,225.041,374.204,233.984,359.049,244.668C343.859,255.386,330.65,267.776,319.386,281.941C308.122,296.107,299.315,311.979,292.966,329.626C286.583,347.238,283.409,366.592,283.409,387.686C283.409,387.686,367.036,387.686,367.036,387.686C367.036,366.012,371.302,347.443,379.836,332.015C388.369,316.553,399.77,303.753,414.071,293.649C428.373,283.546,444.826,276.105,463.462,271.326C482.099,266.581,501.658,264.192,522.172,264.192C566.101,264.192,599.757,273.135,623.138,291.055C646.554,308.975,658.261,333.38,658.261,364.271C658.261,364.271,658.261,364.271,658.261,364.271" class="icon-S"/><glyph unicode="&#x0054;" d="M0,853.197C0,947.541,76.117,1024,170.803,1024C170.803,1024,853.197,1024,853.197,1024C947.507,1024,1024,947.883,1024,853.197C1024,853.197,1024,170.837,1024,170.837C1024,76.493,947.883,0,853.197,0C853.197,0,170.803,0,170.803,0C76.493,0,0,76.151,0,170.837C0,170.837,0,853.197,0,853.197C0,853.197,0,853.197,0,853.197M756.395,767.283C756.395,767.283,553.609,767.283,553.609,767.283C553.609,767.283,553.609,204.8,553.609,204.8C553.609,204.8,470.835,204.8,470.835,204.8C470.835,204.8,470.835,767.283,470.835,767.283C470.835,767.283,268.459,767.283,268.459,767.283C268.459,767.283,268.459,835.755,268.459,835.755C268.459,835.755,756.395,835.755,756.395,835.755C756.395,835.755,756.395,767.283,756.395,767.283C756.395,767.283,756.395,767.283,756.395,767.283" class="icon-T"/><glyph unicode="&#x0055;" d="M0,853.197C0,947.541,76.117,1024,170.803,1024C170.803,1024,853.197,1024,853.197,1024C947.507,1024,1024,947.883,1024,853.197C1024,853.197,1024,170.837,1024,170.837C1024,76.493,947.883,0,853.197,0C853.197,0,170.803,0,170.803,0C76.493,0,0,76.151,0,170.837C0,170.837,0,853.197,0,853.197C0,853.197,0,853.197,0,853.197M741.683,835.755C741.683,835.755,741.683,408.474,741.683,408.474C741.683,372.941,735.471,341.879,723.046,315.324C710.622,288.734,693.931,266.65,672.973,249.003C652.049,231.39,627.712,218.18,599.962,209.374C572.245,200.567,543.061,196.164,512.444,196.164C480.358,196.164,450.458,200.567,422.741,209.374C394.991,218.18,370.961,231.39,350.583,249.003C330.206,266.65,314.197,288.734,302.49,315.324C290.782,341.879,284.945,372.941,284.945,408.474C284.945,408.474,284.945,835.755,284.945,835.755C284.945,835.755,367.275,835.755,367.275,835.755C367.275,835.755,367.275,408.474,367.275,408.474C367.275,383.932,370.79,362.633,377.89,344.576C384.956,326.519,394.854,311.501,407.552,299.486C420.284,287.505,435.507,278.63,453.291,272.862C471.04,267.059,490.769,264.192,512.444,264.192C534.391,264.192,554.325,267.059,572.245,272.862C590.131,278.63,605.457,287.505,618.155,299.486C630.886,311.501,640.717,326.519,647.646,344.576C654.575,362.633,658.022,383.932,658.022,408.474C658.022,408.474,658.022,835.755,658.022,835.755C658.022,835.755,741.683,835.755,741.683,835.755C741.683,835.755,741.683,835.755,741.683,835.755" class="icon-U"/><glyph unicode="&#x0056;" d="M0,853.197C0,947.541,76.117,1024,170.803,1024C170.803,1024,853.197,1024,853.197,1024C947.507,1024,1024,947.883,1024,853.197C1024,853.197,1024,170.837,1024,170.837C1024,76.493,947.883,0,853.197,0C853.197,0,170.803,0,170.803,0C76.493,0,0,76.151,0,170.837C0,170.837,0,853.197,0,853.197C0,853.197,0,853.197,0,853.197M511.795,315.324C511.795,315.324,692.053,835.755,692.053,835.755C692.053,835.755,783.053,835.755,783.053,835.755C783.053,835.755,549.035,204.8,549.035,204.8C549.035,204.8,475.375,204.8,475.375,204.8C475.375,204.8,241.801,835.755,241.801,835.755C241.801,835.755,332.39,835.755,332.39,835.755C332.39,835.755,511.795,315.324,511.795,315.324C511.795,315.324,511.795,315.324,511.795,315.324" class="icon-V"/><glyph unicode="&#x0057;" d="M0,853.197C0,947.541,76.117,1024,170.803,1024C170.803,1024,853.197,1024,853.197,1024C947.507,1024,1024,947.883,1024,853.197C1024,853.197,1024,170.837,1024,170.837C1024,76.493,947.883,0,853.197,0C853.197,0,170.803,0,170.803,0C76.493,0,0,76.151,0,170.837C0,170.837,0,853.197,0,853.197C0,853.197,0,853.197,0,853.197M327.612,403.729C327.612,403.729,339.763,320.512,339.763,320.512C339.763,320.512,357.513,395.469,357.513,395.469C357.513,395.469,482.304,835.755,482.304,835.755C482.304,835.755,552.516,835.755,552.516,835.755C552.516,835.755,674.27,395.469,674.27,395.469C674.27,395.469,691.61,319.215,691.61,319.215C691.61,319.215,705.058,404.139,705.058,404.139C705.058,404.139,802.987,835.755,802.987,835.755C802.987,835.755,886.613,835.755,886.613,835.755C886.613,835.755,733.662,204.8,733.662,204.8C733.662,204.8,657.818,204.8,657.818,204.8C657.818,204.8,527.804,664.576,527.804,664.576C527.804,664.576,517.837,712.67,517.837,712.67C517.837,712.67,507.87,664.576,507.87,664.576C507.87,664.576,373.111,204.8,373.111,204.8C373.111,204.8,297.267,204.8,297.267,204.8C297.267,204.8,144.759,835.755,144.759,835.755C144.759,835.755,227.942,835.755,227.942,835.755C227.942,835.755,327.612,403.729,327.612,403.729C327.612,403.729,327.612,403.729,327.612,403.729" class="icon-W"/><glyph unicode="&#x0058;" d="M0,853.197C0,947.541,76.117,1024,170.803,1024C170.803,1024,853.197,1024,853.197,1024C947.507,1024,1024,947.883,1024,853.197C1024,853.197,1024,170.837,1024,170.837C1024,76.493,947.883,0,853.197,0C853.197,0,170.803,0,170.803,0C76.493,0,0,76.151,0,170.837C0,170.837,0,853.197,0,853.197C0,853.197,0,853.197,0,853.197M512.853,593.954C512.853,593.954,664.098,835.755,664.098,835.755C664.098,835.755,762.027,835.755,762.027,835.755C762.027,835.755,562.688,522.889,562.688,522.889C562.688,522.889,766.805,204.8,766.805,204.8C766.805,204.8,667.989,204.8,667.989,204.8C667.989,204.8,512.853,450.935,512.853,450.935C512.853,450.935,356.864,204.8,356.864,204.8C356.864,204.8,258.492,204.8,258.492,204.8C258.492,204.8,463.019,522.889,463.019,522.889C463.019,522.889,263.27,835.755,263.27,835.755C263.27,835.755,360.755,835.755,360.755,835.755C360.755,835.755,512.853,593.954,512.853,593.954C512.853,593.954,512.853,593.954,512.853,593.954" class="icon-X"/><glyph unicode="&#x0059;" d="M0,853.197C0,947.541,76.117,1024,170.803,1024C170.803,1024,853.197,1024,853.197,1024C947.507,1024,1024,947.883,1024,853.197C1024,853.197,1024,170.837,1024,170.837C1024,76.493,947.883,0,853.197,0C853.197,0,170.803,0,170.803,0C76.493,0,0,76.151,0,170.837C0,170.837,0,853.197,0,853.197C0,853.197,0,853.197,0,853.197M511.147,518.997C511.147,518.997,675.806,835.755,675.806,835.755C675.806,835.755,770.253,835.755,770.253,835.755C770.253,835.755,552.721,440.115,552.721,440.115C552.721,440.115,552.721,204.8,552.721,204.8C552.721,204.8,469.538,204.8,469.538,204.8C469.538,204.8,469.538,440.115,469.538,440.115C469.538,440.115,252.006,835.755,252.006,835.755C252.006,835.755,347.341,835.755,347.341,835.755C347.341,835.755,511.147,518.997,511.147,518.997C511.147,518.997,511.147,518.997,511.147,518.997" class="icon-Y"/><glyph unicode="&#x005a;" d="M0,853.197C0,947.541,76.117,1024,170.803,1024C170.803,1024,853.197,1024,853.197,1024C947.507,1024,1024,947.883,1024,853.197C1024,853.197,1024,170.837,1024,170.837C1024,76.493,947.883,0,853.197,0C853.197,0,170.803,0,170.803,0C76.493,0,0,76.151,0,170.837C0,170.837,0,853.197,0,853.197C0,853.197,0,853.197,0,853.197M381.986,272.862C381.986,272.862,742.98,272.862,742.98,272.862C742.98,272.862,742.98,204.8,742.98,204.8C742.98,204.8,283.648,204.8,283.648,204.8C283.648,204.8,283.648,267.23,283.648,267.23C283.648,267.23,629.419,767.283,629.419,767.283C629.419,767.283,289.28,767.283,289.28,767.283C289.28,767.283,289.28,835.755,289.28,835.755C289.28,835.755,729.088,835.755,729.088,835.755C729.088,835.755,729.088,774.656,729.088,774.656C729.088,774.656,381.986,272.862,381.986,272.862C381.986,272.862,381.986,272.862,381.986,272.862" class="icon-Z"/><glyph unicode="&#x0061;" d="M0,853.197C0,947.541,76.117,1024,170.803,1024C170.803,1024,853.197,1024,853.197,1024C947.507,1024,1024,947.883,1024,853.197C1024,853.197,1024,170.837,1024,170.837C1024,76.493,947.883,0,853.197,0C853.197,0,170.803,0,170.803,0C76.493,0,0,76.151,0,170.837C0,170.837,0,853.197,0,853.197C0,853.197,0,853.197,0,853.197M649.25,340.992C649.25,340.992,374.75,340.992,374.75,340.992C374.75,340.992,313.105,169.984,313.105,169.984C313.105,169.984,223.983,169.984,223.983,169.984C223.983,169.984,474.214,825.207,474.214,825.207C474.214,825.207,549.786,825.207,549.786,825.207C549.786,825.207,800.461,169.984,800.461,169.984C800.461,169.984,711.817,169.984,711.817,169.984C711.817,169.984,649.25,340.992,649.25,340.992C649.25,340.992,649.25,340.992,649.25,340.992M400.862,412.092C400.862,412.092,623.616,412.092,623.616,412.092C623.616,412.092,512,718.541,512,718.541C512,718.541,400.862,412.092,400.862,412.092C400.862,412.092,400.862,412.092,400.862,412.092" class="icon-A"/><glyph unicode="&#x0062;" d="M0,853.197C0,947.541,76.117,1024,170.803,1024C170.803,1024,853.197,1024,853.197,1024C947.507,1024,1024,947.883,1024,853.197C1024,853.197,1024,170.837,1024,170.837C1024,76.493,947.883,0,853.197,0C853.197,0,170.803,0,170.803,0C76.493,0,0,76.151,0,170.837C0,170.837,0,853.197,0,853.197C0,853.197,0,853.197,0,853.197M318.293,204.8C318.293,204.8,318.293,835.755,318.293,835.755C318.293,835.755,524.561,835.755,524.561,835.755C556.919,835.755,585.796,832.512,611.226,825.993C636.655,819.507,658.227,809.404,676.011,795.648C693.76,781.926,707.345,764.553,716.732,743.458C726.118,722.364,730.829,697.071,730.829,667.614C730.829,638.157,722.432,612.079,705.707,589.414C688.947,566.716,666.112,549.171,637.235,536.747C654.848,531.831,670.515,524.629,684.237,515.072C697.958,505.549,709.53,494.285,718.916,481.28C728.303,468.275,735.437,453.7,740.352,437.521C745.267,421.342,747.725,404.446,747.725,386.799C747.725,357.342,742.741,331.264,732.774,308.599C722.807,285.935,708.71,266.854,690.517,251.392C672.324,235.93,650.377,224.324,624.674,216.508C598.938,208.725,570.334,204.8,538.863,204.8C538.863,204.8,318.293,204.8,318.293,204.8C318.293,204.8,318.293,204.8,318.293,204.8M401.476,499.917C401.476,499.917,401.476,272.862,401.476,272.862C401.476,272.862,538.863,272.862,538.863,272.862C558.797,272.862,576.478,275.524,591.94,280.849C607.403,286.208,620.476,293.717,631.159,303.411C641.843,313.071,650.001,324.915,655.633,338.944C661.265,352.939,664.098,368.606,664.098,385.946C664.098,403.285,661.777,419.021,657.169,433.186C652.527,447.351,645.257,459.332,635.29,469.163C625.323,478.959,612.659,486.571,597.367,491.895C582.042,497.254,563.849,499.917,542.754,499.917C542.754,499.917,401.476,499.917,401.476,499.917C401.476,499.917,401.476,499.917,401.476,499.917M401.476,566.647C401.476,566.647,527.155,566.647,527.155,566.647C545.075,566.647,561.391,568.969,576.137,573.577C590.848,578.219,603.511,584.841,614.059,593.51C624.572,602.18,632.764,612.796,638.532,625.357C644.301,637.918,647.202,652.151,647.202,668.058C647.202,702.703,637.065,727.927,616.858,743.663C596.651,759.398,565.862,767.283,524.561,767.283C524.561,767.283,401.476,767.283,401.476,767.283C401.476,767.283,401.476,566.647,401.476,566.647C401.476,566.647,401.476,566.647,401.476,566.647" class="icon-B"/><glyph unicode="&#x0063;" d="M0,853.197C0,947.541,76.117,1024,170.803,1024C170.803,1024,853.197,1024,853.197,1024C947.507,1024,1024,947.883,1024,853.197C1024,853.197,1024,170.837,1024,170.837C1024,76.493,947.883,0,853.197,0C853.197,0,170.803,0,170.803,0C76.493,0,0,76.151,0,170.837C0,170.837,0,853.197,0,853.197C0,853.197,0,853.197,0,853.197M760.525,405.026C757.043,375.262,749.739,347.614,738.645,322.048C727.518,296.448,712.124,274.364,692.497,255.727C672.836,237.09,648.875,222.515,620.544,211.968C592.247,201.421,559.172,196.164,521.318,196.164C484.045,196.164,450.253,203.093,419.908,216.951C389.598,230.81,363.657,250.539,342.118,276.105C320.614,301.67,303.991,332.356,292.284,368.196C280.61,404.002,274.739,444.006,274.739,488.209C274.739,488.209,274.739,551.492,274.739,551.492C274.739,595.695,280.678,635.767,292.523,671.744C304.367,707.686,321.263,738.475,343.211,764.041C365.158,789.606,391.817,809.404,423.151,823.398C454.519,837.393,489.677,844.425,528.691,844.425C564.224,844.425,595.695,839.202,623.138,828.826C650.581,818.415,673.929,803.908,693.146,785.271C712.329,766.635,727.586,744.38,738.85,718.541C750.114,692.668,757.35,664.132,760.525,632.934C760.525,632.934,676.898,632.934,676.898,632.934C673.69,654.916,668.809,674.679,662.153,692.326C655.497,709.939,646.349,724.958,634.641,737.382C622.933,749.807,608.427,759.33,591.087,765.986C573.747,772.642,552.96,775.953,528.691,775.953C500.668,775.953,476.023,770.526,454.793,759.706C433.562,748.851,415.812,733.696,401.51,714.206C387.209,694.682,376.422,671.164,369.22,643.55C361.984,615.97,358.4,585.557,358.4,552.346C358.4,552.346,358.4,488.209,358.4,488.209C358.4,457.318,361.643,428.271,368.128,401.101C374.647,373.965,384.512,350.208,397.824,329.83C411.102,309.453,427.998,293.444,448.512,281.737C469.026,270.029,493.295,264.192,521.318,264.192C547.908,264.192,570.3,267.366,588.493,273.715C606.686,280.064,621.773,289.246,633.754,301.227C645.769,313.207,655.087,327.953,661.709,345.429C668.365,362.906,673.417,382.771,676.898,405.026C676.898,405.026,760.525,405.026,760.525,405.026C760.525,405.026,760.525,405.026,760.525,405.026" class="icon-C"/><glyph unicode="&#x0064;" d="M0,853.197C0,947.541,76.117,1024,170.803,1024C170.803,1024,853.197,1024,853.197,1024C947.507,1024,1024,947.883,1024,853.197C1024,853.197,1024,170.837,1024,170.837C1024,76.493,947.883,0,853.197,0C853.197,0,170.803,0,170.803,0C76.493,0,0,76.151,0,170.837C0,170.837,0,853.197,0,853.197C0,853.197,0,853.197,0,853.197M294.263,204.8C294.263,204.8,294.263,835.755,294.263,835.755C294.263,835.755,472.337,835.755,472.337,835.755C513.946,835.755,551.799,828.826,585.899,814.933C619.964,801.075,649.216,781.278,673.621,755.575C698.061,729.873,716.971,698.675,730.385,661.982C743.834,625.289,750.558,584.124,750.558,538.487C750.558,538.487,750.558,501.214,750.558,501.214C750.558,455.578,743.834,414.413,730.385,377.719C716.971,341.026,697.89,309.897,673.212,284.331C648.499,258.765,618.53,239.104,583.27,225.382C548.045,211.661,508.621,204.8,464.998,204.8C464.998,204.8,294.263,204.8,294.263,204.8C294.263,204.8,294.263,204.8,294.263,204.8M377.446,767.283C377.446,767.283,377.446,272.862,377.446,272.862C377.446,272.862,464.998,272.862,464.998,272.862C498.483,272.862,527.974,278.255,553.37,289.109C578.799,299.93,600.03,315.324,617.097,335.258C634.129,355.191,646.895,379.153,655.428,407.177C663.962,435.2,668.228,466.534,668.228,501.214C668.228,501.214,668.228,539.785,668.228,539.785C668.228,575.898,663.893,608.017,655.223,636.211C646.554,664.371,633.856,688.196,617.097,707.686C600.337,727.211,579.823,741.99,555.554,752.128C531.285,762.231,503.535,767.283,472.337,767.283C472.337,767.283,377.446,767.283,377.446,767.283C377.446,767.283,377.446,767.283,377.446,767.283" class="icon-D"/><glyph unicode="&#x0065;" d="M0,853.197C0,947.541,76.117,1024,170.803,1024C170.803,1024,853.197,1024,853.197,1024C947.507,1024,1024,947.883,1024,853.197C1024,853.197,1024,170.837,1024,170.837C1024,76.493,947.883,0,853.197,0C853.197,0,170.803,0,170.803,0C76.493,0,0,76.151,0,170.837C0,170.837,0,853.197,0,853.197C0,853.197,0,853.197,0,853.197M689.664,496.435C689.664,496.435,416.222,496.435,416.222,496.435C416.222,496.435,416.222,272.862,416.222,272.862C416.222,272.862,733.867,272.862,733.867,272.862C733.867,272.862,733.867,204.8,733.867,204.8C733.867,204.8,333.039,204.8,333.039,204.8C333.039,204.8,333.039,835.755,333.039,835.755C333.039,835.755,729.532,835.755,729.532,835.755C729.532,835.755,729.532,767.283,729.532,767.283C729.532,767.283,416.222,767.283,416.222,767.283C416.222,767.283,416.222,564.497,416.222,564.497C416.222,564.497,689.664,564.497,689.664,564.497C689.664,564.497,689.664,496.435,689.664,496.435C689.664,496.435,689.664,496.435,689.664,496.435" class="icon-E"/><glyph unicode="&#x0066;" d="M0,853.197C0,947.541,76.117,1024,170.803,1024C170.803,1024,853.197,1024,853.197,1024C947.507,1024,1024,947.883,1024,853.197C1024,853.197,1024,170.837,1024,170.837C1024,76.493,947.883,0,853.197,0C853.197,0,170.803,0,170.803,0C76.493,0,0,76.151,0,170.837C0,170.837,0,853.197,0,853.197C0,853.197,0,853.197,0,853.197M687.923,483.465C687.923,483.465,423.151,483.465,423.151,483.465C423.151,483.465,423.151,204.8,423.151,204.8C423.151,204.8,339.968,204.8,339.968,204.8C339.968,204.8,339.968,835.755,339.968,835.755C339.968,835.755,730.829,835.755,730.829,835.755C730.829,835.755,730.829,767.283,730.829,767.283C730.829,767.283,423.151,767.283,423.151,767.283C423.151,767.283,423.151,551.492,423.151,551.492C423.151,551.492,687.923,551.492,687.923,551.492C687.923,551.492,687.923,483.465,687.923,483.465C687.923,483.465,687.923,483.465,687.923,483.465" class="icon-F"/><glyph unicode="&#x0067;" d="M0,853.197C0,947.541,76.117,1024,170.803,1024C170.803,1024,853.197,1024,853.197,1024C947.507,1024,1024,947.883,1024,853.197C1024,853.197,1024,170.837,1024,170.837C1024,76.493,947.883,0,853.197,0C853.197,0,170.803,0,170.803,0C76.493,0,0,76.151,0,170.837C0,170.837,0,853.197,0,853.197C0,853.197,0,853.197,0,853.197M748.817,287.573C742.741,278.903,734.379,269.312,723.695,258.765C713.011,248.218,698.914,238.319,681.438,229.069C663.962,219.853,642.492,212.036,617.097,205.687C591.667,199.339,561.186,196.164,525.653,196.164C487.219,196.164,451.925,202.923,419.703,216.508C387.482,230.093,359.765,249.651,336.486,275.217C313.242,300.783,295.117,332.151,282.112,369.254C269.107,406.391,262.622,448.478,262.622,495.582C262.622,495.582,262.622,544.973,262.622,544.973C262.622,592.077,268.186,634.095,279.313,671.095C290.406,708.062,306.756,739.396,328.26,765.099C349.798,790.835,376.286,810.462,407.791,824.047C439.262,837.632,475.375,844.425,516.13,844.425C552.243,844.425,583.851,839.578,611.021,829.884C638.157,820.224,661.299,806.775,680.346,789.606C699.426,772.403,714.581,751.957,725.845,728.269C737.109,704.58,744.755,678.741,748.817,650.718C748.817,650.718,665.6,650.718,665.6,650.718C662.426,667.75,657.442,683.861,650.684,699.017C643.891,714.206,634.573,727.484,622.729,738.884C610.884,750.319,596.275,759.33,578.935,765.986C561.63,772.642,540.809,775.953,516.54,775.953C487.083,775.953,461.653,770.594,440.286,759.91C418.918,749.227,401.271,733.901,387.413,713.967C373.555,694.033,363.213,669.935,356.42,641.604C349.628,613.308,346.249,581.393,346.249,545.86C346.249,545.86,346.249,495.582,346.249,495.582C346.249,459.196,350.583,426.667,359.253,398.097C367.923,369.493,380.109,345.225,395.878,325.291C411.614,305.357,430.524,290.167,452.642,279.791C474.726,269.38,499.2,264.192,526.097,264.192C548.625,264.192,567.74,265.694,583.509,268.732C599.245,271.77,612.523,275.524,623.377,279.996C634.197,284.467,642.935,289.382,649.591,294.741C656.213,300.066,661.709,305.05,666.044,309.692C666.044,309.692,666.044,451.379,666.044,451.379C666.044,451.379,520.021,451.379,520.021,451.379C520.021,451.379,520.021,518.997,520.021,518.997C520.021,518.997,748.817,518.997,748.817,518.997C748.817,518.997,748.817,287.573,748.817,287.573C748.817,287.573,748.817,287.573,748.817,287.573" class="icon-G"/><glyph unicode="&#x0068;" d="M0,853.197C0,947.541,76.117,1024,170.803,1024C170.803,1024,853.197,1024,853.197,1024C947.507,1024,1024,947.883,1024,853.197C1024,853.197,1024,170.837,1024,170.837C1024,76.493,947.883,0,853.197,0C853.197,0,170.803,0,170.803,0C76.493,0,0,76.151,0,170.837C0,170.837,0,853.197,0,853.197C0,853.197,0,853.197,0,853.197M753.801,204.8C753.801,204.8,670.174,204.8,670.174,204.8C670.174,204.8,670.174,496.435,670.174,496.435C670.174,496.435,352.085,496.435,352.085,496.435C352.085,496.435,352.085,204.8,352.085,204.8C352.085,204.8,268.902,204.8,268.902,204.8C268.902,204.8,268.902,835.755,268.902,835.755C268.902,835.755,352.085,835.755,352.085,835.755C352.085,835.755,352.085,564.497,352.085,564.497C352.085,564.497,670.174,564.497,670.174,564.497C670.174,564.497,670.174,835.755,670.174,835.755C670.174,835.755,753.801,835.755,753.801,835.755C753.801,835.755,753.801,204.8,753.801,204.8C753.801,204.8,753.801,204.8,753.801,204.8" class="icon-H"/><glyph unicode="&#x0069;" d="M0,853.197C0,947.541,76.117,1024,170.803,1024C170.803,1024,853.197,1024,853.197,1024C947.507,1024,1024,947.883,1024,853.197C1024,853.197,1024,170.837,1024,170.837C1024,76.493,947.883,0,853.197,0C853.197,0,170.803,0,170.803,0C76.493,0,0,76.151,0,170.837C0,170.837,0,853.197,0,853.197C0,853.197,0,853.197,0,853.197M553.813,204.8C553.813,204.8,470.63,204.8,470.63,204.8C470.63,204.8,470.63,835.755,470.63,835.755C470.63,835.755,553.813,835.755,553.813,835.755C553.813,835.755,553.813,204.8,553.813,204.8C553.813,204.8,553.813,204.8,553.813,204.8" class="icon-I"/><glyph unicode="&#x006a;" d="M0,853.197C0,947.541,76.117,1024,170.803,1024C170.803,1024,853.197,1024,853.197,1024C947.507,1024,1024,947.883,1024,853.197C1024,853.197,1024,170.837,1024,170.837C1024,76.493,947.883,0,853.197,0C853.197,0,170.803,0,170.803,0C76.493,0,0,76.151,0,170.837C0,170.837,0,853.197,0,853.197C0,853.197,0,853.197,0,853.197M604.74,835.755C604.74,835.755,688.367,835.755,688.367,835.755C688.367,835.755,688.367,388.983,688.367,388.983C688.367,357.786,683.452,330.138,673.621,306.005C663.825,281.873,650.001,261.734,632.252,245.555C614.468,229.376,593.408,217.088,568.969,208.725C544.563,200.329,517.939,196.164,489.028,196.164C459.844,196.164,433.118,199.817,408.883,207.189C384.614,214.562,363.657,225.826,346.044,240.981C328.397,256.171,314.675,275.217,304.879,298.189C295.049,321.161,290.133,348.092,290.133,379.017C290.133,379.017,373.35,379.017,373.35,379.017C373.316,359.083,376.218,341.879,381.986,327.441C387.789,313.003,395.708,301.09,405.845,291.703C415.949,282.317,428.066,275.388,442.231,270.882C456.397,266.411,471.996,264.192,489.028,264.192C505.515,264.192,520.806,266.854,534.972,272.213C549.137,277.538,561.391,285.423,571.802,295.799C582.212,306.21,590.302,319.215,596.07,334.814C601.839,350.413,604.74,368.469,604.74,388.983C604.74,388.983,604.74,835.755,604.74,835.755C604.74,835.755,604.74,835.755,604.74,835.755" class="icon-J"/><glyph unicode="&#x006b;" d="M0,853.197C0,947.541,76.117,1024,170.803,1024C170.803,1024,853.197,1024,853.197,1024C947.507,1024,1024,947.883,1024,853.197C1024,853.197,1024,170.837,1024,170.837C1024,76.493,947.883,0,853.197,0C853.197,0,170.803,0,170.803,0C76.493,0,0,76.151,0,170.837C0,170.837,0,853.197,0,853.197C0,853.197,0,853.197,0,853.197M467.354,498.176C467.354,498.176,390.246,418.031,390.246,418.031C390.246,418.031,390.246,204.8,390.246,204.8C390.246,204.8,307.029,204.8,307.029,204.8C307.029,204.8,307.029,835.755,307.029,835.755C307.029,835.755,390.246,835.755,390.246,835.755C390.246,835.755,390.246,523.742,390.246,523.742C390.246,523.742,458.684,600.03,458.684,600.03C458.684,600.03,670.583,835.755,670.583,835.755C670.583,835.755,771.14,835.755,771.14,835.755C771.14,835.755,522.82,557.124,522.82,557.124C522.82,557.124,790.63,204.8,790.63,204.8C790.63,204.8,690.961,204.8,690.961,204.8C690.961,204.8,467.354,498.176,467.354,498.176C467.354,498.176,467.354,498.176,467.354,498.176" class="icon-K"/><glyph unicode="&#x006c;" d="M0,853.197C0,947.541,76.117,1024,170.803,1024C170.803,1024,853.197,1024,853.197,1024C947.507,1024,1024,947.883,1024,853.197C1024,853.197,1024,170.837,1024,170.837C1024,76.493,947.883,0,853.197,0C853.197,0,170.803,0,170.803,0C76.493,0,0,76.151,0,170.837C0,170.837,0,853.197,0,853.197C0,853.197,0,853.197,0,853.197M430.114,272.862C430.114,272.862,729.088,272.862,729.088,272.862C729.088,272.862,729.088,204.8,729.088,204.8C729.088,204.8,346.453,204.8,346.453,204.8C346.453,204.8,346.453,835.755,346.453,835.755C346.453,835.755,430.114,835.755,430.114,835.755C430.114,835.755,430.114,272.862,430.114,272.862C430.114,272.862,430.114,272.862,430.114,272.862" class="icon-L"/><glyph unicode="&#x006d;" d="M0,853.197C0,947.541,76.117,1024,170.803,1024C170.803,1024,853.197,1024,853.197,1024C947.507,1024,1024,947.883,1024,853.197C1024,853.197,1024,170.837,1024,170.837C1024,76.493,947.883,0,853.197,0C853.197,0,170.803,0,170.803,0C76.493,0,0,76.151,0,170.837C0,170.837,0,853.197,0,853.197C0,853.197,0,853.197,0,853.197M305.289,835.755C305.289,835.755,511.556,320.956,511.556,320.956C511.556,320.956,717.824,835.755,717.824,835.755C717.824,835.755,825.719,835.755,825.719,835.755C825.719,835.755,825.719,204.8,825.719,204.8C825.719,204.8,742.537,204.8,742.537,204.8C742.537,204.8,742.537,450.526,742.537,450.526C742.537,450.526,750.319,715.708,750.319,715.708C750.319,715.708,543.198,204.8,543.198,204.8C543.198,204.8,479.505,204.8,479.505,204.8C479.505,204.8,272.794,714.411,272.794,714.411C272.794,714.411,281.02,450.526,281.02,450.526C281.02,450.526,281.02,204.8,281.02,204.8C281.02,204.8,197.837,204.8,197.837,204.8C197.837,204.8,197.837,835.755,197.837,835.755C197.837,835.755,305.289,835.755,305.289,835.755C305.289,835.755,305.289,835.755,305.289,835.755" class="icon-M"/><glyph unicode="&#x006e;" d="M0,853.197C0,947.541,76.117,1024,170.803,1024C170.803,1024,853.197,1024,853.197,1024C947.507,1024,1024,947.883,1024,853.197C1024,853.197,1024,170.837,1024,170.837C1024,76.493,947.883,0,853.197,0C853.197,0,170.803,0,170.803,0C76.493,0,0,76.151,0,170.837C0,170.837,0,853.197,0,853.197C0,853.197,0,853.197,0,853.197M753.801,204.8C753.801,204.8,670.174,204.8,670.174,204.8C670.174,204.8,352.529,691.029,352.529,691.029C352.529,691.029,352.529,204.8,352.529,204.8C352.529,204.8,268.902,204.8,268.902,204.8C268.902,204.8,268.902,835.755,268.902,835.755C268.902,835.755,352.529,835.755,352.529,835.755C352.529,835.755,671.027,347.375,671.027,347.375C671.027,347.375,671.027,835.755,671.027,835.755C671.027,835.755,753.801,835.755,753.801,835.755C753.801,835.755,753.801,204.8,753.801,204.8C753.801,204.8,753.801,204.8,753.801,204.8" class="icon-N"/><glyph unicode="&#x006f;" d="M0,853.197C0,947.541,76.117,1024,170.803,1024C170.803,1024,853.197,1024,853.197,1024C947.507,1024,1024,947.883,1024,853.197C1024,853.197,1024,170.837,1024,170.837C1024,76.493,947.883,0,853.197,0C853.197,0,170.803,0,170.803,0C76.493,0,0,76.151,0,170.837C0,170.837,0,853.197,0,853.197C0,853.197,0,853.197,0,853.197M765.508,499.917C765.508,452.54,759.501,410.146,747.52,372.736C735.539,335.326,718.541,303.479,696.593,277.197C674.645,250.88,648.055,230.81,616.858,216.951C585.66,203.093,550.844,196.164,512.444,196.164C475.17,196.164,440.934,203.093,409.737,216.951C378.539,230.81,351.676,250.88,329.148,277.197C306.586,303.479,289.109,335.326,276.685,372.736C264.294,410.146,258.082,452.54,258.082,499.917C258.082,499.917,258.082,539.785,258.082,539.785C258.082,586.854,264.294,629.248,276.685,666.965C289.109,704.649,306.449,736.666,328.704,762.948C350.959,789.231,377.651,809.404,408.883,823.398C440.081,837.393,474.317,844.425,511.556,844.425C549.99,844.425,584.875,837.393,616.209,823.398C647.578,809.404,674.27,789.231,696.388,762.948C718.473,736.666,735.539,704.649,747.52,666.965C759.501,629.248,765.508,586.854,765.508,539.785C765.508,539.785,765.508,499.917,765.508,499.917C765.508,499.917,765.508,499.917,765.508,499.917M682.735,540.638C682.735,578.219,678.912,611.43,671.266,640.307C663.586,669.218,652.39,693.487,637.679,713.114C622.933,732.774,604.945,747.622,583.714,757.76C562.483,767.863,538.419,772.915,511.556,772.915C485.854,772.915,462.473,767.863,441.378,757.76C420.284,747.622,402.295,732.774,387.413,713.114C372.531,693.487,361.062,669.218,352.973,640.307C344.883,611.43,340.821,578.219,340.821,540.638C340.821,540.638,340.821,499.917,340.821,499.917C340.821,462.063,344.951,428.715,353.178,399.804C361.404,370.927,373.043,346.59,388.062,326.793C403.081,306.995,421.137,292.045,442.231,281.941C463.326,271.838,486.707,266.786,512.444,266.786C539.58,266.786,563.712,271.838,584.806,281.941C605.901,292.045,623.718,306.995,638.327,326.793C652.902,346.59,663.962,370.927,671.471,399.804C678.98,428.715,682.735,462.063,682.735,499.917C682.735,499.917,682.735,540.638,682.735,540.638C682.735,540.638,682.735,540.638,682.735,540.638" class="icon-O"/><glyph unicode="&#x0070;" d="M0,853.197C0,947.541,76.117,1024,170.803,1024C170.803,1024,853.197,1024,853.197,1024C947.507,1024,1024,947.883,1024,853.197C1024,853.197,1024,170.837,1024,170.837C1024,76.493,947.883,0,853.197,0C853.197,0,170.803,0,170.803,0C76.493,0,0,76.151,0,170.837C0,170.837,0,853.197,0,853.197C0,853.197,0,853.197,0,853.197M388.506,451.823C388.506,451.823,388.506,204.8,388.506,204.8C388.506,204.8,305.289,204.8,305.289,204.8C305.289,204.8,305.289,835.755,305.289,835.755C305.289,835.755,538.01,835.755,538.01,835.755C573.815,835.755,605.457,830.976,632.9,821.453C660.343,811.93,683.383,798.549,702.02,781.38C720.657,764.177,734.822,743.799,744.482,720.282C754.176,696.73,758.989,670.925,758.989,642.901C758.989,612.591,754.176,585.489,744.482,561.664C734.822,537.839,720.657,517.837,702.02,501.658C683.383,485.478,660.343,473.122,632.9,464.589C605.457,456.09,573.815,451.823,538.01,451.823C538.01,451.823,388.506,451.823,388.506,451.823C388.506,451.823,388.506,451.823,388.506,451.823M388.506,519.851C388.506,519.851,538.01,519.851,538.01,519.851C562.278,519.851,583.134,522.889,600.61,528.964C618.086,535.006,632.388,543.471,643.516,554.291C654.643,565.146,662.801,577.98,667.989,592.862C673.212,607.744,675.806,624.128,675.806,642.048C675.806,658.227,673.212,673.894,667.989,689.05C662.801,704.239,654.643,717.585,643.516,729.156C632.388,740.693,618.086,749.943,600.61,756.873C583.134,763.802,562.278,767.283,538.01,767.283C538.01,767.283,388.506,767.283,388.506,767.283C388.506,767.283,388.506,519.851,388.506,519.851C388.506,519.851,388.506,519.851,388.506,519.851" class="icon-P"/><glyph unicode="&#x0071;" d="M0,853.197C0,947.541,76.117,1024,170.803,1024C170.803,1024,853.197,1024,853.197,1024C947.507,1024,1024,947.883,1024,853.197C1024,853.197,1024,170.837,1024,170.837C1024,76.493,947.883,0,853.197,0C853.197,0,170.803,0,170.803,0C76.493,0,0,76.151,0,170.837C0,170.837,0,853.197,0,853.197C0,853.197,0,853.197,0,853.197M762.027,499.917C762.027,438.955,752.367,386.458,733.013,342.391C713.66,298.359,686.49,263.885,651.537,239.036C651.537,239.036,764.211,150.665,764.211,150.665C764.211,150.665,707.447,98.202,707.447,98.202C707.447,98.202,574.396,203.947,574.396,203.947C553.609,198.758,531.661,196.164,508.518,196.164C471.279,196.164,437.043,203.093,405.845,216.951C374.647,230.81,347.75,250.88,325.222,277.197C302.694,303.479,285.218,335.326,272.794,372.736C260.369,410.146,254.157,452.54,254.157,499.917C254.157,499.917,254.157,539.785,254.157,539.785C254.157,586.854,260.369,629.248,272.794,666.965C285.218,704.649,302.558,736.666,324.813,762.948C347.034,789.231,373.76,809.404,404.958,823.398C436.156,837.393,470.391,844.425,507.665,844.425C546.099,844.425,580.983,837.393,612.318,823.398C643.652,809.404,670.447,789.231,692.702,762.948C714.957,736.666,732.058,704.649,744.038,666.965C756.053,629.248,762.027,586.854,762.027,539.785C762.027,539.785,762.027,499.917,762.027,499.917C762.027,499.917,762.027,499.917,762.027,499.917M678.844,540.638C678.844,578.219,675.021,611.43,667.341,640.307C659.695,669.218,648.567,693.487,633.993,713.114C619.383,732.774,601.498,747.622,580.267,757.76C559.002,767.863,534.835,772.915,507.665,772.915C481.963,772.915,458.615,767.863,437.692,757.76C416.734,747.622,398.814,732.774,383.966,713.114C369.084,693.487,357.581,669.218,349.491,640.307C341.402,611.43,337.374,578.219,337.374,540.638C337.374,540.638,337.374,499.917,337.374,499.917C337.374,462.063,341.47,428.715,349.73,399.804C357.956,370.927,369.493,346.59,384.375,326.793C399.258,306.995,417.246,292.045,438.34,281.941C459.435,271.838,482.816,266.786,508.518,266.786C535.689,266.786,559.821,271.838,580.915,281.941C601.975,292.045,619.827,306.995,634.402,326.793C649.011,346.59,660.07,370.927,667.58,399.804C675.089,428.715,678.844,462.063,678.844,499.917C678.844,499.917,678.844,540.638,678.844,540.638C678.844,540.638,678.844,540.638,678.844,540.638" class="icon-Q"/><glyph unicode="&#x0072;" d="M0,853.197C0,947.541,76.117,1024,170.803,1024C170.803,1024,853.197,1024,853.197,1024C947.507,1024,1024,947.883,1024,853.197C1024,853.197,1024,170.837,1024,170.837C1024,76.493,947.883,0,853.197,0C853.197,0,170.803,0,170.803,0C76.493,0,0,76.151,0,170.837C0,170.837,0,853.197,0,853.197C0,853.197,0,853.197,0,853.197M543.403,460.049C543.403,460.049,395.23,460.049,395.23,460.049C395.23,460.049,395.23,204.8,395.23,204.8C395.23,204.8,311.569,204.8,311.569,204.8C311.569,204.8,311.569,835.755,311.569,835.755C311.569,835.755,520.465,835.755,520.465,835.755C591.531,835.755,646.178,819.575,684.476,787.217C722.739,754.859,741.888,707.755,741.888,645.939C741.888,606.652,731.273,572.416,710.042,543.232C688.811,514.082,659.251,492.271,621.431,477.798C621.431,477.798,769.604,210.022,769.604,210.022C769.604,210.022,769.604,204.8,769.604,204.8C769.604,204.8,680.346,204.8,680.346,204.8C680.346,204.8,543.403,460.049,543.403,460.049C543.403,460.049,543.403,460.049,543.403,460.049M395.23,528.077C395.23,528.077,523.059,528.077,523.059,528.077C545.587,528.077,565.316,531.183,582.212,537.395C599.108,543.607,613.171,551.97,624.435,562.517C635.733,573.065,644.164,585.489,649.796,599.791C655.428,614.093,658.261,629.487,658.261,645.939C658.261,664.132,655.565,680.687,650.24,695.569C644.881,710.451,636.587,723.217,625.323,733.901C614.059,744.619,599.757,752.845,582.417,758.613C565.077,764.382,544.427,767.283,520.465,767.283C520.465,767.283,395.23,767.283,395.23,767.283C395.23,767.283,395.23,528.077,395.23,528.077C395.23,528.077,395.23,528.077,395.23,528.077" class="icon-R"/><glyph unicode="&#x0073;" d="M0,853.197C0,947.541,76.117,1024,170.803,1024C170.803,1024,853.197,1024,853.197,1024C947.507,1024,1024,947.883,1024,853.197C1024,853.197,1024,170.837,1024,170.837C1024,76.493,947.883,0,853.197,0C853.197,0,170.803,0,170.803,0C76.493,0,0,76.151,0,170.837C0,170.837,0,853.197,0,853.197C0,853.197,0,853.197,0,853.197M658.261,364.271C658.261,379.017,656.009,392.021,651.537,403.285C647.066,414.549,639.113,424.892,627.712,434.278C616.277,443.665,600.917,452.471,581.564,460.698C562.21,468.924,537.634,477.389,507.87,486.059C476.672,495.002,448.444,505.173,423.151,516.608C397.892,528.009,376.354,541.15,358.605,556.032C340.821,570.914,327.168,587.878,317.645,606.959C308.122,626.005,303.343,647.817,303.343,672.393C303.343,696.934,308.463,719.701,318.737,740.625C328.977,761.583,343.518,779.776,362.291,795.238C381.065,810.701,403.593,822.75,429.875,831.42C456.158,840.09,485.478,844.425,517.837,844.425C553.37,844.425,585.011,839.066,612.762,828.382C640.478,817.698,663.825,803.533,682.735,785.92C701.645,768.307,716.015,747.93,725.845,724.821C735.676,701.713,740.591,677.854,740.591,653.312C740.591,653.312,656.964,653.312,656.964,653.312C656.964,670.925,654.131,687.275,648.499,702.293C642.867,717.312,634.266,730.317,622.729,741.274C611.157,752.265,596.719,760.798,579.379,766.839C562.039,772.915,541.525,775.953,517.837,775.953C495.616,775.953,476.262,773.359,459.776,768.137C443.324,762.948,429.739,755.814,419.055,746.701C408.371,737.587,400.418,726.835,395.23,714.411C390.007,701.986,387.413,688.401,387.413,673.69C387.413,660.378,390.246,648.26,395.878,637.269C401.51,626.313,410.249,616.209,422.093,606.959C433.937,597.709,449.161,589.175,467.797,581.393C486.434,573.577,508.757,566.067,534.767,558.865C570.573,548.727,601.498,537.532,627.473,525.278C653.483,512.99,674.918,499.063,691.849,483.465C708.745,467.831,721.306,450.355,729.532,431.002C737.758,411.648,741.888,389.7,741.888,365.158C741.888,339.422,736.7,316.177,726.289,295.39C715.878,274.569,701.065,256.819,681.882,242.074C662.665,227.362,639.556,215.996,612.523,208.077C585.523,200.124,555.418,196.164,522.172,196.164C502.818,196.164,483.465,197.939,464.111,201.557C444.757,205.175,426.189,210.603,408.439,217.805C390.656,225.041,374.204,233.984,359.049,244.668C343.859,255.386,330.65,267.776,319.386,281.941C308.122,296.107,299.315,311.979,292.966,329.626C286.583,347.238,283.409,366.592,283.409,387.686C283.409,387.686,367.036,387.686,367.036,387.686C367.036,366.012,371.302,347.443,379.836,332.015C388.369,316.553,399.77,303.753,414.071,293.649C428.373,283.546,444.826,276.105,463.462,271.326C482.099,266.581,501.658,264.192,522.172,264.192C566.101,264.192,599.757,273.135,623.138,291.055C646.554,308.975,658.261,333.38,658.261,364.271C658.261,364.271,658.261,364.271,658.261,364.271" class="icon-S"/><glyph unicode="&#x0074;" d="M0,853.197C0,947.541,76.117,1024,170.803,1024C170.803,1024,853.197,1024,853.197,1024C947.507,1024,1024,947.883,1024,853.197C1024,853.197,1024,170.837,1024,170.837C1024,76.493,947.883,0,853.197,0C853.197,0,170.803,0,170.803,0C76.493,0,0,76.151,0,170.837C0,170.837,0,853.197,0,853.197C0,853.197,0,853.197,0,853.197M756.395,767.283C756.395,767.283,553.609,767.283,553.609,767.283C553.609,767.283,553.609,204.8,553.609,204.8C553.609,204.8,470.835,204.8,470.835,204.8C470.835,204.8,470.835,767.283,470.835,767.283C470.835,767.283,268.459,767.283,268.459,767.283C268.459,767.283,268.459,835.755,268.459,835.755C268.459,835.755,756.395,835.755,756.395,835.755C756.395,835.755,756.395,767.283,756.395,767.283C756.395,767.283,756.395,767.283,756.395,767.283" class="icon-T"/><glyph unicode="&#x0075;" d="M0,853.197C0,947.541,76.117,1024,170.803,1024C170.803,1024,853.197,1024,853.197,1024C947.507,1024,1024,947.883,1024,853.197C1024,853.197,1024,170.837,1024,170.837C1024,76.493,947.883,0,853.197,0C853.197,0,170.803,0,170.803,0C76.493,0,0,76.151,0,170.837C0,170.837,0,853.197,0,853.197C0,853.197,0,853.197,0,853.197M741.683,835.755C741.683,835.755,741.683,408.474,741.683,408.474C741.683,372.941,735.471,341.879,723.046,315.324C710.622,288.734,693.931,266.65,672.973,249.003C652.049,231.39,627.712,218.18,599.962,209.374C572.245,200.567,543.061,196.164,512.444,196.164C480.358,196.164,450.458,200.567,422.741,209.374C394.991,218.18,370.961,231.39,350.583,249.003C330.206,266.65,314.197,288.734,302.49,315.324C290.782,341.879,284.945,372.941,284.945,408.474C284.945,408.474,284.945,835.755,284.945,835.755C284.945,835.755,367.275,835.755,367.275,835.755C367.275,835.755,367.275,408.474,367.275,408.474C367.275,383.932,370.79,362.633,377.89,344.576C384.956,326.519,394.854,311.501,407.552,299.486C420.284,287.505,435.507,278.63,453.291,272.862C471.04,267.059,490.769,264.192,512.444,264.192C534.391,264.192,554.325,267.059,572.245,272.862C590.131,278.63,605.457,287.505,618.155,299.486C630.886,311.501,640.717,326.519,647.646,344.576C654.575,362.633,658.022,383.932,658.022,408.474C658.022,408.474,658.022,835.755,658.022,835.755C658.022,835.755,741.683,835.755,741.683,835.755C741.683,835.755,741.683,835.755,741.683,835.755" class="icon-U"/><glyph unicode="&#x0076;" d="M0,853.197C0,947.541,76.117,1024,170.803,1024C170.803,1024,853.197,1024,853.197,1024C947.507,1024,1024,947.883,1024,853.197C1024,853.197,1024,170.837,1024,170.837C1024,76.493,947.883,0,853.197,0C853.197,0,170.803,0,170.803,0C76.493,0,0,76.151,0,170.837C0,170.837,0,853.197,0,853.197C0,853.197,0,853.197,0,853.197M511.795,315.324C511.795,315.324,692.053,835.755,692.053,835.755C692.053,835.755,783.053,835.755,783.053,835.755C783.053,835.755,549.035,204.8,549.035,204.8C549.035,204.8,475.375,204.8,475.375,204.8C475.375,204.8,241.801,835.755,241.801,835.755C241.801,835.755,332.39,835.755,332.39,835.755C332.39,835.755,511.795,315.324,511.795,315.324C511.795,315.324,511.795,315.324,511.795,315.324" class="icon-V"/><glyph unicode="&#x0077;" d="M0,853.197C0,947.541,76.117,1024,170.803,1024C170.803,1024,853.197,1024,853.197,1024C947.507,1024,1024,947.883,1024,853.197C1024,853.197,1024,170.837,1024,170.837C1024,76.493,947.883,0,853.197,0C853.197,0,170.803,0,170.803,0C76.493,0,0,76.151,0,170.837C0,170.837,0,853.197,0,853.197C0,853.197,0,853.197,0,853.197M327.612,403.729C327.612,403.729,339.763,320.512,339.763,320.512C339.763,320.512,357.513,395.469,357.513,395.469C357.513,395.469,482.304,835.755,482.304,835.755C482.304,835.755,552.516,835.755,552.516,835.755C552.516,835.755,674.27,395.469,674.27,395.469C674.27,395.469,691.61,319.215,691.61,319.215C691.61,319.215,705.058,404.139,705.058,404.139C705.058,404.139,802.987,835.755,802.987,835.755C802.987,835.755,886.613,835.755,886.613,835.755C886.613,835.755,733.662,204.8,733.662,204.8C733.662,204.8,657.818,204.8,657.818,204.8C657.818,204.8,527.804,664.576,527.804,664.576C527.804,664.576,517.837,712.67,517.837,712.67C517.837,712.67,507.87,664.576,507.87,664.576C507.87,664.576,373.111,204.8,373.111,204.8C373.111,204.8,297.267,204.8,297.267,204.8C297.267,204.8,144.759,835.755,144.759,835.755C144.759,835.755,227.942,835.755,227.942,835.755C227.942,835.755,327.612,403.729,327.612,403.729C327.612,403.729,327.612,403.729,327.612,403.729" class="icon-W"/><glyph unicode="&#x0078;" d="M0,853.197C0,947.541,76.117,1024,170.803,1024C170.803,1024,853.197,1024,853.197,1024C947.507,1024,1024,947.883,1024,853.197C1024,853.197,1024,170.837,1024,170.837C1024,76.493,947.883,0,853.197,0C853.197,0,170.803,0,170.803,0C76.493,0,0,76.151,0,170.837C0,170.837,0,853.197,0,853.197C0,853.197,0,853.197,0,853.197M512.853,593.954C512.853,593.954,664.098,835.755,664.098,835.755C664.098,835.755,762.027,835.755,762.027,835.755C762.027,835.755,562.688,522.889,562.688,522.889C562.688,522.889,766.805,204.8,766.805,204.8C766.805,204.8,667.989,204.8,667.989,204.8C667.989,204.8,512.853,450.935,512.853,450.935C512.853,450.935,356.864,204.8,356.864,204.8C356.864,204.8,258.492,204.8,258.492,204.8C258.492,204.8,463.019,522.889,463.019,522.889C463.019,522.889,263.27,835.755,263.27,835.755C263.27,835.755,360.755,835.755,360.755,835.755C360.755,835.755,512.853,593.954,512.853,593.954C512.853,593.954,512.853,593.954,512.853,593.954" class="icon-X"/><glyph unicode="&#x0079;" d="M0,853.197C0,947.541,76.117,1024,170.803,1024C170.803,1024,853.197,1024,853.197,1024C947.507,1024,1024,947.883,1024,853.197C1024,853.197,1024,170.837,1024,170.837C1024,76.493,947.883,0,853.197,0C853.197,0,170.803,0,170.803,0C76.493,0,0,76.151,0,170.837C0,170.837,0,853.197,0,853.197C0,853.197,0,853.197,0,853.197M511.147,518.997C511.147,518.997,675.806,835.755,675.806,835.755C675.806,835.755,770.253,835.755,770.253,835.755C770.253,835.755,552.721,440.115,552.721,440.115C552.721,440.115,552.721,204.8,552.721,204.8C552.721,204.8,469.538,204.8,469.538,204.8C469.538,204.8,469.538,440.115,469.538,440.115C469.538,440.115,252.006,835.755,252.006,835.755C252.006,835.755,347.341,835.755,347.341,835.755C347.341,835.755,511.147,518.997,511.147,518.997C511.147,518.997,511.147,518.997,511.147,518.997" class="icon-Y"/><glyph unicode="&#x007a;" d="M0,853.197C0,947.541,76.117,1024,170.803,1024C170.803,1024,853.197,1024,853.197,1024C947.507,1024,1024,947.883,1024,853.197C1024,853.197,1024,170.837,1024,170.837C1024,76.493,947.883,0,853.197,0C853.197,0,170.803,0,170.803,0C76.493,0,0,76.151,0,170.837C0,170.837,0,853.197,0,853.197C0,853.197,0,853.197,0,853.197M381.986,272.862C381.986,272.862,742.98,272.862,742.98,272.862C742.98,272.862,742.98,204.8,742.98,204.8C742.98,204.8,283.648,204.8,283.648,204.8C283.648,204.8,283.648,267.23,283.648,267.23C283.648,267.23,629.419,767.283,629.419,767.283C629.419,767.283,289.28,767.283,289.28,767.283C289.28,767.283,289.28,835.755,289.28,835.755C289.28,835.755,729.088,835.755,729.088,835.755C729.088,835.755,729.088,774.656,729.088,774.656C729.088,774.656,381.986,272.862,381.986,272.862C381.986,272.862,381.986,272.862,381.986,272.862" class="icon-Z"/></font>
</defs>
</svg>
